<svg xmlns="http://www.w3.org/2000/svg" width="99" height="88" viewBox="0 0 99 88"><defs><style>.a{fill:#563adf;}.b{fill:#363338;}</style></defs><g transform="translate(-409.5 -1037)"><path class="a" d="M44-33H-11a5.5,5.5,0,0,0-5.5,5.5v33A5.5,5.5,0,0,0-11,11H44a5.5,5.5,0,0,0,5.5-5.5v-33A5.5,5.5,0,0,0,44-33ZM33-16.5A16.531,16.531,0,0,1,16.479,0a19.927,19.927,0,0,1-2.15-.14C6.016-1.2,0-8.688,0-17.074v-3.551A1.375,1.375,0,0,1,1.375-22h2.75A1.375,1.375,0,0,1,5.5-20.625v3.637c0,5.742,4.189,10.88,9.9,11.435.3.03.785.054,1.084.054A11.019,11.019,0,0,0,27.5-16.5v-4.125A1.375,1.375,0,0,1,28.875-22h2.75A1.375,1.375,0,0,1,33-20.625Z" transform="translate(459 1114)"/><path class="b" d="M27.5-44A5.5,5.5,0,0,0,22-49.5H5.5v-11A16.506,16.506,0,0,0-11-77,16.506,16.506,0,0,0-27.5-60.5v11H-44A5.5,5.5,0,0,0-49.5-44V0A5.5,5.5,0,0,0-44,5.5h22V-33a5.5,5.5,0,0,1,5.5-5.5h44ZM-2.75-49.5h-16.5v-11A8.253,8.253,0,0,1-11-68.75,8.253,8.253,0,0,1-2.75-60.5Z" transform="translate(459 1114)"/></g></svg>