<svg xmlns="http://www.w3.org/2000/svg" width="110" height="88.003" viewBox="0 0 110 88.003"><defs><style>.a{fill:#563adf;}.b{fill:#363338;}</style></defs><g transform="translate(-923 -1037)"><path class="a" d="M8.044-66.363-7.047-61.328-14.18-75.556A2.845,2.845,0,0,0-16.509-77a2.845,2.845,0,0,0-2.329,1.443l-7.116,14.228-15.108-5.034a3.135,3.135,0,0,0-.811-.129,2.619,2.619,0,0,0-2.618,2.618,3.134,3.134,0,0,0,.128.809l5.036,15.089-14.231,7.131A2.843,2.843,0,0,0-55-38.516a2.843,2.843,0,0,0,1.444,2.328l14.231,7.116-5.036,15.087a3.116,3.116,0,0,0-.135.828,2.606,2.606,0,0,0,2.605,2.605,3.117,3.117,0,0,0,.829-.135l13.08-4.347A26.555,26.555,0,0,1-23.925-20.8a22.6,22.6,0,0,1-6.187-4.125,22.081,22.081,0,0,1-5.781-13.754,19.257,19.257,0,0,1,19.25-19.25c6.9,0,14.784,5.12,17.589,11.428a29.675,29.675,0,0,1,5.277-1.289l5.122-15.278a3.123,3.123,0,0,0,.135-.828A2.607,2.607,0,0,0,8.873-66.5,3.126,3.126,0,0,0,8.044-66.363ZM-16.5-52.937h-.027A14.417,14.417,0,0,0-30.939-38.526,14.993,14.993,0,0,0-19.267-24.377a26.536,26.536,0,0,1,4.331-2.011c.805-6.516,6-14.6,11.584-18.047A15.731,15.731,0,0,0-16.5-52.937Z" transform="translate(978 1114)"/><path class="b" d="M43.863-21.031v-.007c.052-.264.113-.695.137-.962v-.025A10.971,10.971,0,0,0,33.033-32.992a12.9,12.9,0,0,0-5.894,1.718A19.245,19.245,0,0,0,9.625-42.618a19.257,19.257,0,0,0-19.25,19.25c0,.516.12,1,.155,1.5A16.453,16.453,0,0,0-24.75-5.5,16.506,16.506,0,0,0-8.25,11H38.5A16.506,16.506,0,0,0,55-5.5,16.444,16.444,0,0,0,43.863-21.031Z" transform="translate(978 1114)"/></g></svg>