<svg xmlns="http://www.w3.org/2000/svg" width="40" height="40" viewBox="0 0 40 40"><defs><style>.a{fill:#563adf;}.b{fill:#fff;}</style></defs><g transform="translate(-338 -2511)"><circle class="a" cx="20" cy="20" r="20" transform="translate(338 2511)"/><path class="b" d="M21.533-13.888A10.573,10.573,0,0,0,24-16.431a9.861,9.861,0,0,1-2.832.761,4.906,4.906,0,0,0,2.162-2.711,9.684,9.684,0,0,1-3.122,1.188,4.907,4.907,0,0,0-3.594-1.553A4.917,4.917,0,0,0,11.7-13.827a5.553,5.553,0,0,0,.122,1.127A13.981,13.981,0,0,1,1.675-17.848a4.881,4.881,0,0,0-.67,2.482,4.915,4.915,0,0,0,2.193,4.1,4.953,4.953,0,0,1-2.223-.624v.061A4.919,4.919,0,0,0,4.919-7.005a5.2,5.2,0,0,1-1.294.167A6.2,6.2,0,0,1,2.7-6.914,4.928,4.928,0,0,0,7.294-3.5,9.851,9.851,0,0,1,1.188-1.4,10.18,10.18,0,0,1,0-1.462,13.9,13.9,0,0,0,7.553.746,13.9,13.9,0,0,0,21.548-13.249C21.548-13.462,21.548-13.675,21.533-13.888Z" transform="translate(346 2540)"/></g></svg>