<svg xmlns="http://www.w3.org/2000/svg" width="40" height="40" viewBox="0 0 40 40"><defs><style>.a{fill:#563adf;}.b{fill:#fff;}</style></defs><g transform="translate(-388 -2511)"><circle class="a" cx="20" cy="20" r="20" transform="translate(388 2511)"/><path class="b" d="M4.7,0V-14.02H.347V0ZM2.521-15.933a2.543,2.543,0,0,0,2.521-2.545A2.522,2.522,0,0,0,2.521-21,2.522,2.522,0,0,0,0-18.478,2.542,2.542,0,0,0,2.521-15.933ZM21,0h0V-7.7c0-3.769-.81-6.67-5.216-6.67a4.575,4.575,0,0,0-4.119,2.264H11.6V-14.02H7.428V0h4.349V-6.942c0-1.828.347-3.6,2.61-3.6,2.231,0,2.264,2.086,2.264,3.713V0Z" transform="translate(398 2540)"/></g></svg>