<svg xmlns="http://www.w3.org/2000/svg" width="98.75" height="69.131" viewBox="0 0 98.75 69.131"><defs><style>.a{fill:#cbcbcb;}</style></defs><path class="a" d="M38.4-31.224c-.114-1.589-.92-2.179-1.961-2.179a2.173,2.173,0,0,0-2.1,2.179Zm21.086-2.142c-.072,0-2.177-.273-2.177,3.086s2.1,3.086,2.177,3.086c2.006,0,2.177-2.089,2.177-3.086C61.666-33.637,59.559-33.365,59.489-33.365ZM21.961-29.7a1.505,1.505,0,0,0-.51,1.048c0,.021,0,.056,0,.077a1.155,1.155,0,0,0,.508,1.088c.725.571,2.325.327,3.229.146v-2.614C24.37-30.119,22.609-30.256,21.961-29.7ZM98.75-33.328A21.343,21.343,0,0,0,68.844-53.007,17.5,17.5,0,0,0,53.6-62.044a17.384,17.384,0,0,0-12.521,5.371c-3.174-4.145-9.987-7.511-15.208-7.514A19.2,19.2,0,0,0,8.233-37.4C-7.744-28,1.375-2.966,19.847-6.652c5.542,15.021,26.639,15.618,32.99.8,9.485,4.493,17.563-1.332,20.4-6.423C86.406-9.506,98.75-19.815,98.75-33.328ZM18.585-28.422v-.008c0,1.7-1.27,2.794-3.3,2.794a6.186,6.186,0,0,1-3.521-1.017c0-.035-.108-.072-.036-.217l.37-1.153c.035-.219.182-.145.254-.11a5.722,5.722,0,0,0,2.932.98c.87,0,1.415-.472,1.415-1.089,0-.88-1.3-1.1-2.032-1.342-.986-.267-2.759-.727-2.759-2.649,0-3.273,4.377-3.137,6.28-1.959a.187.187,0,0,1,.116.164.212.212,0,0,1-.008.053c-.036.11-.363,1.017-.4,1.125-.073.182-.253.073-.253.073-1.261-.7-3.884-1.133-3.884.327,0,.838,1.256,1.054,2.069,1.379C16.781-30.762,18.585-30.236,18.585-28.422Zm4.938-6.57,0-.008c3.564,0,3.521,2.628,3.515,3.339v5.228c0,.188-.3.241-.545.29-.281.091-3.99,1.042-5.879-.218A2.518,2.518,0,0,1,19.6-28.574c0-.025,0-.065,0-.09a2.922,2.922,0,0,1,1.134-2.153c1.589-1.111,3.8-.626,4.538-.58,0-.353.083-1.2-.472-1.632a2.271,2.271,0,0,0-1.417-.364,6.1,6.1,0,0,0-2.612.617.2.2,0,0,1-.034,0,.163.163,0,0,1-.148-.112l-.4-1.089a.181.181,0,0,1-.029-.091.173.173,0,0,1,.066-.127A6.518,6.518,0,0,1,23.523-34.991Zm7.182-3.237.009,12.189s0,.008,0,.011a.171.171,0,0,1-.171.171H29a.171.171,0,0,1-.171-.171s0-.008,0-.011V-38.229s0-.008,0-.011A.171.171,0,0,1,29-38.411h1.536a.171.171,0,0,1,.171.171S30.705-38.232,30.705-38.229Zm8.6,4.464h0a5.559,5.559,0,0,1,.94,3.739.2.2,0,0,1-.181.145H34.334A2.369,2.369,0,0,0,36.948-27.3a5.544,5.544,0,0,0,2.359-.435.237.237,0,0,1,.041,0,.212.212,0,0,1,.176.112l.363,1.054c.073.181.036.253-.037.29a5.42,5.42,0,0,1-2.867.58,4.471,4.471,0,0,1-3.52-1.27,4.768,4.768,0,0,1-1.089-3.266,5.31,5.31,0,0,1,1.015-3.3,3.9,3.9,0,0,1,3.194-1.379A3.326,3.326,0,0,1,39.307-33.765Zm5.661,8.13h0a6.18,6.18,0,0,1-3.516-1.017c0-.035-.108-.072-.035-.217l.363-1.16a.156.156,0,0,1,.154-.147.179.179,0,0,1,.1.037,5.731,5.731,0,0,0,2.932.98c.872,0,1.415-.472,1.415-1.089,0-.839-1.089-1.034-2.032-1.342-.986-.267-2.757-.727-2.757-2.649,0-1.6,1.305-2.722,3.157-2.722a5.894,5.894,0,0,1,3.121.762.187.187,0,0,1,.116.165.211.211,0,0,1-.008.053c-.035.11-.363,1.017-.4,1.125-.072.182.415.418-.255.072a6.983,6.983,0,0,0-2.577-.653c-.8,0-1.307.4-1.307.98,0,.858,1.43,1.123,2.069,1.379.954.309,2.759.835,2.759,2.649C48.272-26.724,47-25.635,44.968-25.635ZM55.1-34.562l-.218,1.2a.206.206,0,0,1-.182.182H52.811c-1.381,7.707-1.39,8.028-1.814,9.218a3.128,3.128,0,0,1-1.779,2,4.471,4.471,0,0,1-2.759,0c-.072,0-.11-.108-.072-.218s.4-1.052.437-1.162c.072-.182.218-.11.218-.11a2.234,2.234,0,0,0,1.487.037,1.766,1.766,0,0,0,.907-1.2c.247-.819.284-1.176,1.6-8.567h-1.27c-.145,0-.182-.072-.182-.181l.219-1.2a.2.2,0,0,1,.181-.182h1.307a5.567,5.567,0,0,1,1.234-3.012,3.886,3.886,0,0,1,3.774-.654c.037.037.145.073.037.218l-.437,1.2c-.035.072-.072.145-.253.072-.037,0-1.21-.387-1.852.253a3.958,3.958,0,0,0-.69,1.924h1.814C55.061-34.745,55.1-34.672,55.1-34.562Zm8.238,2.469a6.576,6.576,0,0,1,0,3.629,3.825,3.825,0,0,1-3.884,2.8,3.846,3.846,0,0,1-3.882-2.8,6.643,6.643,0,0,1,0-3.629,3.83,3.83,0,0,1,3.882-2.794A3.842,3.842,0,0,1,63.336-32.094Zm7-2.577v0a.2.2,0,0,1,.085.152.211.211,0,0,1-.012.065c-.11.348-.322.9-.472,1.234a.263.263,0,0,1-.218.145,2.266,2.266,0,0,0-2.069.472,3.25,3.25,0,0,0-.688,2.322V-26s0,.007,0,.01a.173.173,0,0,1-.173.173H65.287a.173.173,0,0,1-.173-.173s0-.007,0-.01v-8.529s0-.007,0-.01a.172.172,0,0,1,.171-.171h1.473a.171.171,0,0,1,.171.171s0,.007,0,.01v.69A3.333,3.333,0,0,1,70.341-34.671Zm7.223,8.348v0a.244.244,0,0,1,.008.058.226.226,0,0,1-.081.161,8.2,8.2,0,0,1-2.395.437c-4.555,0-4.465-4.2-4.465-4.646a4.256,4.256,0,0,1,2.5-4.246,6.217,6.217,0,0,1,4.283,0c.037,0,.145.036.11.181-.147.472-.255.762-.4,1.162-.037.182.26.251-.182.11a6.444,6.444,0,0,0-1.64-.256l-.137,0c-2.256,0-2.541,2.088-2.541,3.049,0,2.875,1.933,3.049,2.649,3.049a5.036,5.036,0,0,0,1.742-.292s.145-.073.218.11Zm8.312-6.1v0a7.808,7.808,0,0,1,.218,2.4.2.2,0,0,1-.182.145H80.177A2.366,2.366,0,0,0,82.789-27.3a5.547,5.547,0,0,0,2.359-.435.225.225,0,0,1,.041,0,.211.211,0,0,1,.176.112l.364,1.054c.072.181.035.253-.037.29a5.424,5.424,0,0,1-2.867.58c-1.7,0-4.61-.545-4.61-4.536,0-.025,0-.065,0-.09a7.139,7.139,0,0,1,.255-1.725,3.812,3.812,0,0,1,3.956-2.868A3.386,3.386,0,0,1,85.875-32.421Zm-3.594-.98a2.169,2.169,0,0,0-2.1,2.179h4.069c-.136-1.839-1.176-2.18-1.964-2.18Z" transform="translate(0 64.188)"/></svg>