<svg xmlns="http://www.w3.org/2000/svg" width="69.125" height="69.125" viewBox="0 0 69.125 69.125"><defs><style>.a{fill:#cbcbcb;}</style></defs><path class="a" d="M0-64.187V4.938H69.125V-64.187ZM57.429-47.817l-3.7,3.549a1.087,1.087,0,0,0-.417,1.034v26.122a1.062,1.062,0,0,0,.417,1.034l3.626,3.549v.787H39.145V-12.5l3.749-3.641c.37-.37.37-.478.37-1.034V-38.3L32.834-11.819h-1.4L19.287-38.3v17.744a2.44,2.44,0,0,0,.679,2.037l4.876,5.91v.787H10.986v-.787l4.876-5.91a2.362,2.362,0,0,0,.633-2.037V-41.074a1.762,1.762,0,0,0-.586-1.512l-4.336-5.231V-48.6h13.47l10.4,22.836,9.15-22.821H57.429Z" transform="translate(0 64.188)"/></svg>