<svg xmlns="http://www.w3.org/2000/svg" width="84.267" height="59.25" viewBox="0 0 84.267 59.25"><defs><style>.a{fill:#cbcbcb;}</style></defs><path class="a" d="M84.81-49.979a10.588,10.588,0,0,0-7.45-7.5C70.789-59.25,44.438-59.25,44.438-59.25s-26.351,0-32.922,1.772a10.588,10.588,0,0,0-7.45,7.5C2.3-43.365,2.3-29.565,2.3-29.565s0,13.8,1.761,20.414a10.43,10.43,0,0,0,7.45,7.379C18.087,0,44.438,0,44.438,0S70.788,0,77.36-1.772a10.43,10.43,0,0,0,7.45-7.379c1.761-6.614,1.761-20.414,1.761-20.414S86.571-43.365,84.81-49.979ZM35.819-17.036V-42.095l22.024,12.53Z" transform="translate(-2.304 59.25)"/></svg>