<svg xmlns="http://www.w3.org/2000/svg" width="98.75" height="38.423" viewBox="0 0 98.75 38.423"><defs><style>.a{fill:#cbcbcb;}</style></defs><path class="a" d="M60.7-48.806a10.712,10.712,0,0,0-4.2.714c-1.957,1.024-2.685,2.756-2.685,7.539a7.667,7.667,0,0,1,2.461-1.491C61.018-43.762,60.7-46.8,60.7-48.806ZM42.83-43.322,37.547-22.853,33.152-39.6c-1.187-4.936-3.211-7.488-7.473-7.488-4.223,0-6.274,2.5-7.473,7.488L13.813-22.853,8.53-43.322C7.673-47.445,3.682-49.227,0-48.764L10.117-10.509s3.337.241,5.008-.611c2.194-1.119,3.237-1.981,4.566-7.186,1.183-4.64,4.492-18.27,4.8-19.241.734-2.305,1.711-2.131,2.376,0,.3.972,3.618,14.6,4.8,19.241,1.327,5.2,2.372,6.067,4.566,7.186,1.67.852,5.008.611,5.008.611L51.362-48.764C47.594-49.238,43.675-47.386,42.83-43.322Zm17.865.8a6.185,6.185,0,0,1-2.077,1.785c-.927.518-1.818.87-2.773,1.329-2.336,1.12-2.034,2.152-2.034,5.431v23.464a8.7,8.7,0,0,0,4.223-.529c2.149-1.1,2.643-2.152,2.663-6.909V-41.134l0,0ZM85.912-29.545,98.75-48.637s-5.417-.923-8.1,1.52c-2.052,1.867-3.766,4.559-8.36,11.182-.073.113-.964,1.626-2.017,0-4.519-6.516-6.3-9.3-8.36-11.182-2.683-2.443-8.1-1.52-8.1-1.52L76.65-29.545l-12.8,19.034s5.643.713,8.324-1.73c1.773-1.614,2.713-3.143,8.1-10.912,1.051-1.623,1.94-.119,2.017,0,4.536,6.539,6.053,8.958,8.2,10.912,2.683,2.443,8.227,1.73,8.227,1.73Z" transform="translate(0 48.836)"/></svg>