<svg xmlns="http://www.w3.org/2000/svg" width="98.752" height="59.315" viewBox="0 0 98.752 59.315"><defs><style>.a{fill:#cbcbcb;}</style></defs><path class="a" d="M27.837-37.8l0-10.691c.019-.234.033-.616.033-.851a12.542,12.542,0,0,0-2.76-7.228,13.776,13.776,0,0,0-7.548-2.712c-.289,0-.757.021-1.045.046-4.641-.026-9.37,1.818-10.174,2.805-.219.42-.69,3.734.454,3.734.378,0,.523.086,1.659-.435a18.406,18.406,0,0,1,7.073-1.56c4.646-.475,7.329,2.693,6.914,6.775v2.41a30.987,30.987,0,0,0-7.25-.967C9.5-46.786,4-43.117,4.249-37.21c-.35,7.247,6.457,8.81,8.969,8.673l.195,0a13.727,13.727,0,0,0,9.466-4.546c1.9,4.234,3.094,3.949,3.16,3.952a1.934,1.934,0,0,0,.869-.3l1.975-1.382a1.414,1.414,0,0,0,.633-.968C29.472-32.759,27.726-34.306,27.837-37.8ZM14.5-32.8a4.286,4.286,0,0,1-4.623-4.7c-.167-4.109,4.1-5.154,6.44-4.978a26.514,26.514,0,0,1,6.1.751,15.455,15.455,0,0,1-.316,4.228C21.625-35.885,19.506-32.876,14.5-32.8Zm26.372,3.557v0H43.7a1.778,1.778,0,0,0,1.956-1.659l5.058-21.137,5.117,21.159a1.78,1.78,0,0,0,1.956,1.659H60.67a1.78,1.78,0,0,0,1.956-1.6c8.665-27.86,8.073-25.93,8.139-26.215.139-1.449-.679-1.344-.81-1.324H66.912a1.8,1.8,0,0,0-1.956,1.6L59.267-34.758,54.11-56.766a1.707,1.707,0,0,0-1.957-1.6H49.506a1.746,1.746,0,0,0-1.975,1.58l-5.117,21.73L36.9-56.786a1.753,1.753,0,0,0-1.936-1.6H31.534a.734.734,0,0,0-.6.7.872.872,0,0,0,.008.107,5.9,5.9,0,0,0,.3,1.324l7.684,25.405A1.781,1.781,0,0,0,40.875-29.247Zm42.2.869c.13,0,7.743.474,10.687-5.311.548-1.1,1.973-5.121-.671-8.554-2.233-2.591-4.114-2.871-9.739-4.564-.477-.126-4.649-1.224-4.582-4.149-.228-3.712,4.863-3.908,5.926-3.853,4.285-.065,6.4,1.526,7.585,1.659q.752,0,.751-1.028v-1.56a1.865,1.865,0,0,0-.3-1.086c-1.41-1.773-6.619-2.412-8.574-2.41C77.3-59.27,73.337-54.959,73.431-50.6c.014,5.979,6.041,7.88,6.757,8.079,5.809,1.833,6.581,1.884,8.2,3.24a3.547,3.547,0,0,1-.81,5.393c-.61.336-3.1,1.853-8.752.691a21.19,21.19,0,0,1-4.445-1.481c-.406-.156-1.362-.4-1.362.909v1.677a2.138,2.138,0,0,0,1.205,1.819A20.845,20.845,0,0,0,83.072-28.378Zm6.2,16.18c1.8-1.324.256-3.3-1.562-2.528-9.867,4.163-26.567,7.588-37.277,7.646h-.063C35.944-7.081,14.068-12.9,1.543-20.06.318-20.753-.571-19.508.437-18.6,11.84-8.315,33.558.031,48.913.031l.477,0C62.783.029,78.469-4.218,89.275-12.2Zm4.5-5.137c1.382,1.779-1.541,9.068-2.844,12.347-.395.988.455,1.384,1.344.633,5.788-4.86,7.269-15.035,6.1-16.5s-11.321-2.706-17.5,1.64c-.949.671-.771,1.58.276,1.461C84.632-18.165,92.4-19.113,93.779-17.335Z" transform="translate(0 59.284)"/></svg>