<svg xmlns="http://www.w3.org/2000/svg" width="98.737" height="32.685" viewBox="0 0 98.737 32.685"><defs><style>.a{fill:#cbcbcb;}</style></defs><path class="a" d="M22.3-14.812l5.91.123a41.081,41.081,0,0,1-5.91-2.592Zm8.9-.818v.818l-2.993.123c5.632,1.929,10.785,2.191,14.612,1.111A33.033,33.033,0,0,1,31.2-15.63ZM94.291-33.405a4.461,4.461,0,0,0,4.459-4.459c0-2.469-1.99-3.78-4.459-3.78-2.453,0-4.459,1.327-4.459,3.78A4.461,4.461,0,0,0,94.291-33.405ZM89.816-14.812H98.75v-17.05H89.816Zm-11.372,0h8.934V-44.947l-8.934,4.212ZM73.661-33.236c-2.808-2.808-7.777-2.638-7.777-2.638s-4.984-.17-7.777,2.638C55.3-30.427,55.516-28,55.516-25.12s-.216,5.292,2.592,8.1,7.777,2.638,7.777,2.638,4.984.17,7.777-2.638c2.808-2.808,2.592-5.215,2.592-8.1C76.238-28.02,76.454-30.443,73.661-33.236ZM67.52-22.142c0,.555-.278,1.929-1.651,1.929s-1.651-1.373-1.651-1.929v-6.234a1.62,1.62,0,0,1,1.651-1.682,1.61,1.61,0,0,1,1.651,1.682ZM51.134-33.236c-2.808-2.808-7.777-2.638-7.777-2.638s-4.968-.17-7.777,2.638a9.273,9.273,0,0,0-.818.926,85.593,85.593,0,0,0-15.754-9.427v-3.194L15.538-43.3C7.144-46.706,1.805-46.1.525-43.28c0,0-3.842,5.061,9.536,17.1v11.372h8.934v-4.413c-1-.648-2.006-1.342-2.993-2.1-2.284-1.728-4.228-3.333-5.925-4.845v-4.783a74.917,74.917,0,0,0,8.24,7.761l.694.555v-4.6c0-1.065.262-2.808,1.666-2.808s1.635,1.065,1.635,2.314v7.514a41.139,41.139,0,0,0,8.9,4.567V-30.134c0-2.885-2.067-5.771-6.264-5.771a6.824,6.824,0,0,0-5.94,3.379V-40.9a128.568,128.568,0,0,1,15.414,9c-1.574,2.253-1.435,4.336-1.435,6.743,0,2.885-.216,5.292,2.592,8.1s7.777,2.638,7.777,2.638,4.984.17,7.777-2.638c2.808-2.808,2.577-5.215,2.577-8.1C53.711-28.02,53.942-30.443,51.134-33.236Zm-41.074-7.5v9.767c-7.514-8.409-6-11.727-5.431-12.2,2.083-1.759,5.786-1.234,9.937.324ZM45.008-22.142c0,.555-.278,1.929-1.651,1.929s-1.651-1.373-1.651-1.929v-6.234a1.62,1.62,0,0,1,1.651-1.682,1.61,1.61,0,0,1,1.651,1.682Z" transform="translate(-0.013 45.631)"/></svg>