<svg xmlns="http://www.w3.org/2000/svg" width="544" height="417.176" viewBox="0 0 544 417.176"><defs><style>.a{fill:#6fd395;}.b{fill:#56a373;}.c{fill:#563adf;}.d{fill:#ff5862;}.e{fill:#c74749;}.f{fill:#f2bc9c;}.g{fill:#ba745d;}.h{fill:#464473;}.i{fill:#393762;}.j{fill:#e48868;}.k{fill:#ffc371;}.l{fill:#ece0d3;}.m{fill:#49478a;}.n{fill:#e8a12b;}.o{fill:#6b53e3;}.p{fill:none;stroke:#e8a12b;stroke-linecap:round;stroke-linejoin:round;stroke-width:0.5px;}.q{fill:#ffa658;}.r{fill:#dc5955;}.s{fill:#cfb199;}.t{fill:#ff2e57;}.u{fill:#1b1464;}.v{fill:#e3a37d;}.w{fill:#b77053;}</style></defs><g transform="translate(-138.006 -52.895)"><g transform="translate(286.771 72.144)"><g transform="translate(22.935 183.673)"><path class="a" d="M245.535,215.761l8.572-41.483,5.432.1,3.649,41.38h33.458c.509-18.364.585-53.145-.063-70.267l-79.344-2.122c-.816,13.69-1.231,51.441-2.678,72.389Z" transform="translate(-214.562 -143.372)"/></g><g transform="translate(4.986 242.463)"><g transform="translate(0 10.878)"><path class="a" d="M224.508,177.156c-3.16,58.571-6.132,133.117-6.132,133.117l-11.817,8.749h18.447l30.475-141.866-17.126-2.721Z" transform="translate(-206.559 -174.435)"/></g><g transform="translate(66.575)"><path class="a" d="M269.7,183.183l-24.722-13.6-8.736,13.6L250.9,325.049h18.447l-10.5-7.98S268.16,251.041,269.7,183.183Z" transform="translate(-236.243 -169.585)"/></g></g><g transform="translate(60.189 191.105)"><path class="b" d="M236.457,165.25a.681.681,0,0,1-.657-.5l-4.6-17.2a.68.68,0,0,1,1.314-.352l4.6,17.207a.679.679,0,0,1-.657.855Z" transform="translate(-231.173 -146.686)"/></g><g transform="translate(0 87.23)"><path class="c" d="M221.489,100.371c-5.4,6.345-15.6,34.124-15.6,38.933s-5.208,50.306,3.429,51.174,14.928-11.073,14.928-11.073Z" transform="translate(-204.336 -100.371)"/></g><g transform="translate(10.477 55.365)"><path class="d" d="M304.884,122.027l-5.439,98.38-75.3-5.937-10.106,6.453c-4.163-24.092-7.128-52.677-3.162-77.605,1.258-7.917,5.125-26.808,6.7-34.734.852-4.279,35.5-22.787,41.806-22.415s9.207-.507,18.958,1.725c11.008,2.519,30.32,13.23,34.4,18.194s10.443,70.864,9.054,77.164c-3.389,15.363-11.961,42.432-11.961,42.432l-10.386-5.275" transform="translate(-209.007 -86.164)"/></g><g transform="translate(39.188 130.845)"><path class="e" d="M222.489,149.93a.681.681,0,0,1-.321-1.281,105.887,105.887,0,0,0,33.608-28.571.693.693,0,0,1,.955-.123.682.682,0,0,1,.123.955,107.271,107.271,0,0,1-34.046,28.939A.681.681,0,0,1,222.489,149.93Z" transform="translate(-221.809 -119.818)"/></g><g transform="translate(62.065 135.071)"><path class="e" d="M232.689,156.463a.68.68,0,0,1-.536-1.1c8.767-11.257,15.029-20.735,19.167-33.2a.68.68,0,0,1,1.292.428c-4.2,12.647-10.53,22.237-19.387,33.6A.674.674,0,0,1,232.689,156.463Z" transform="translate(-232.009 -121.702)"/></g><g transform="translate(27.118 75.117)"><path class="e" d="M217.111,197.87l-.054,0a.682.682,0,0,1-.628-.729c.908-12.129,2-23.731,3.057-34.947.792-8.406,1.613-17.1,2.364-26.1.906-10.857,1.085-31.523-4-40.092a.679.679,0,0,1,1.169-.693c5.262,8.864,5.107,29.879,4.187,40.9-.751,9.009-1.572,17.7-2.364,26.113-1.056,11.214-2.149,22.807-3.052,34.923A.683.683,0,0,1,217.111,197.87Z" transform="translate(-216.427 -94.97)"/></g><g transform="translate(55.204 40.905)"><path class="f" d="M228.95,79.716V95.591s12.824,13.591,24.606.316l-1.029-16.191Z" transform="translate(-228.95 -79.716)"/></g><g transform="translate(47.504 3.997)"><path class="f" d="M264.6,89.041a4.4,4.4,0,0,0-1.3-.372c1.817-11.575,1.038-25.956-17.915-25.393-11.308.336-14.67,10.709-15.4,21.553a3.329,3.329,0,0,0-2.568-.083c-3.9,1.171-1.193,11.019,2.853,12.531,1.5,9.913,6.737,16.263,14.235,16.823,6.932.52,12.349-4.867,15.614-12.995C264.334,100.168,268.326,90.712,264.6,89.041Z" transform="translate(-225.517 -63.26)"/></g><g transform="translate(56.253 49.039)"><path class="g" d="M240.554,89.856c-.314,0-.635-.011-.953-.036a14.068,14.068,0,0,1-10.03-5.367.68.68,0,1,1,1.054-.859,12.736,12.736,0,0,0,9.077,4.869c3.723.276,7.1-1.2,10.037-4.4a.68.68,0,0,1,1,.92A13.729,13.729,0,0,1,240.554,89.856Z" transform="translate(-229.418 -83.343)"/></g><g transform="translate(15.507 183.673)"><path class="f" d="M211.25,149.825s10.317,20.113,13.89,10.945-3.784-17.4-3.784-17.4h0Z" transform="translate(-211.25 -143.372)"/></g><g transform="translate(49.316)"><path class="h" d="M228.977,87.044l2.409,3.869h2.557V84.274s3.221-3.268,3.562-6.989l19.315,1.379s-.617,4.759.913,6.63v7.65h2.38l2.178-2.061s4.685-16.978,2.783-21.228a4.513,4.513,0,0,0-5.811-2.718s-6.361-7.48-15.249-4.93S227.985,70,226.624,73.735,228.977,87.044,228.977,87.044Z" transform="translate(-226.325 -61.478)"/></g><g transform="translate(94.439 189.609)"><path class="f" d="M252.919,146.019s-10.081,11.279-5.087,18.247,15.473-12.972,15.473-12.972S254.319,146.129,252.919,146.019Z" transform="translate(-246.444 -146.019)"/></g><g transform="translate(99.213 76.806)"><path class="e" d="M250.446,207.174a.679.679,0,0,1-.2-1.328c.054-.022,1.608-.594,2.03-3.49.123-.834-.574-2.33-1.312-3.911-1.877-4.033-4.717-10.122.987-15.531,4.591-4.356,3.29-9.81,2.142-14.625-.684-2.864-1.272-5.338-.415-7.116,1.177-2.447,1.33-25.1,1.442-41.638.09-13.387.164-21.674.52-23.28a.686.686,0,0,1,.812-.516.68.68,0,0,1,.516.81c-.343,1.548-.413,11.965-.489,23-.15,22.379-.363,39.7-1.579,42.218-.646,1.343-.108,3.6.516,6.213,1.171,4.914,2.631,11.035-2.53,15.928-4.992,4.732-2.606,9.853-.689,13.964.9,1.929,1.606,3.452,1.426,4.685-.554,3.795-2.873,4.562-2.972,4.591A.729.729,0,0,1,250.446,207.174Z" transform="translate(-248.572 -95.723)"/></g><g transform="translate(30.511 188.155)"><path class="b" d="M220.79,165.122a.681.681,0,0,1-.529-1.108,12.247,12.247,0,0,0-2.057-17.422.68.68,0,0,1,.83-1.079,13.612,13.612,0,0,1,2.283,19.355A.668.668,0,0,1,220.79,165.122Z" transform="translate(-217.94 -145.37)"/></g><g transform="translate(90.416 211.02)"><path class="b" d="M245.33,162.394a.68.68,0,0,1-.148-1.343,18.151,18.151,0,0,0,9.2-5.271.68.68,0,1,1,.994.929,19.526,19.526,0,0,1-9.9,5.67A.664.664,0,0,1,245.33,162.394Z" transform="translate(-244.65 -155.566)"/></g><g transform="translate(31.19 61.577)"><path class="c" d="M218.243,95.951c3.454,6.4,2.523,33.366,2.523,33.366v10.925s14.484-27.782,10.541-51.309Z" transform="translate(-218.243 -88.933)"/></g></g><g transform="translate(138.006 88.465)"><g transform="translate(57.68)"><path class="i" d="M187.072,136.057c-13.771-5.055-24.426-16.644-23.26-31.617,1.056-13.54,8.929-26.454,21.468-32.184a36.05,36.05,0,0,1,14.159-3.5c20.591-.417,31.444,22.984,33.622,40.711,1.148,9.364-6.152,13.587-12.818,18.582C210.484,135.367,199.308,140.548,187.072,136.057Z" transform="translate(-163.724 -68.755)"/></g><g transform="translate(67.341 5.972)"><path class="j" d="M189.034,131.183l-6.894-15s-5.654,1.628-8.191-.745c-.953-.89-1.98-5.715-2.552-11.732-.067-.72-.13-1.453-.184-2.2-.056-.776-3.14,1.375-3.18.579-.081-1.631,2.911-6.233,2.913-7.886.013-7.617,1-15.011,3.8-17.837,6.4-6.453,29.152-7.751,32.433,3.254a31.953,31.953,0,0,1-8.437,32.267l6.412,15.57Z" transform="translate(-168.031 -71.417)"/></g><g transform="translate(66.64 2.394)"><path class="i" d="M167.719,82.936c11.757,12.421,19.485,29.643,35.847,34.622,1.642-6.188,10.6-20.412,10.373-26.81s-2.613-13.028-7.7-16.913c-3.822-2.916-8.781-4.006-13.589-4.012C182.827,69.809,172.754,74.5,167.719,82.936Z" transform="translate(-167.719 -69.822)"/></g><g transform="translate(0 47.209)"><g transform="translate(0 305.154)"><path class="i" d="M162.973,225.863,156.987,243.9s-18.458,1.115-18.981,2.382l26.559,7.271L171.5,228.2Z" transform="translate(-138.006 -225.863)"/></g><g transform="translate(165.029 303.425)"><path class="i" d="M211.588,256.065H226.8l11.034-8.526-13.687-22.446-7.548,4.6,9.013,16.735-2.807,6.692Z" transform="translate(-211.588 -225.092)"/></g><g transform="translate(20.584 138.74)"><path class="i" d="M189.651,243.357l-33.04,89.786-9.428-1.859L163.459,236.1h0l27.022-84.437h68.867l12.2,85.838h0l39.039,89.337-7.9,5.33-51.647-79.246-3.919-9.332-24.4-54.3Z" transform="translate(-147.184 -151.664)"/></g><g transform="translate(56.153 2.531)"><path class="k" d="M212.2,90.932s-14.118,4.432-21.215,12.584-18.539,31.742-18.792,34.391,8.319,31.341,8.319,31.341l-17.471,66.719s54.415,8.424,81.622,0l-14.24-52.883s3.485-21.681,4.322-25.079c2.427-9.841-1.779-24.913-3.559-35.264s-9.918-22.143-12.714-24.55A51.974,51.974,0,0,1,212.2,90.932Z" transform="translate(-163.043 -90.932)"/></g><g transform="translate(44.748 97.18)"><path class="l" d="M260.311,149.834l-94.184-16.7-8.169,52.22,95.6,14.452Z" transform="translate(-157.958 -133.133)"/></g><g transform="translate(26.89 36.98)"><g transform="translate(3.443 11.551)"><path class="j" d="M199.261,134.265l-3.528,13.943s-30.924-11.571-32.783-12.243c0,0-5.475-4.322-6.58-5.152s-4.555-9.386-4.831-10.216,6.349-1.243,6.349-1.243a45.6,45.6,0,0,1,.536-5.419c.184-.715,1.7-3.923,2.38-1.749l1.474,6.327,2.1,2.084c1.09,1.5,2.348,7.87,2.348,7.87Z" transform="translate(-151.53 -111.442)"/></g><path class="l" d="M162.031,133.986l-4.167-15.408-3.451-12.286L150,107.948l8.168,26.435Z" transform="translate(-149.995 -106.292)"/><g transform="translate(14.862 26.672)"><path class="k" d="M195.66,125.473s-3.734-10.548-10.759-6.266a10.572,10.572,0,0,1-12.636-1.023l-11.869,1.9-3.775,7.5,36.037,15.195Z" transform="translate(-156.622 -118.184)"/></g><g transform="translate(3.257 14.013)"><path class="j" d="M151.641,119.233c-.765-1.745.935-7.157,1.615-6.661s.951,3.315.951,3.315l-.65,1.666s1.117-.4,1.173-.009.453,2.267.453,2.267l.179,3.584Z" transform="translate(-151.448 -112.54)"/></g></g><g transform="translate(100.686)"><path class="k" d="M182.9,94.077c6.549-4.367,29.439-5.161,32.157-3.4s-3.624,7.309-2.945,10.992,14.051,8.473,9.518,16.5-17.9,17.548-17.9,17.548Z" transform="translate(-182.899 -89.804)"/></g><g transform="translate(85.791 156.42)"><path class="m" d="M184.557,172.746a.668.668,0,0,0,.368-.108.679.679,0,0,0,.2-.94l-7.619-11.84a.681.681,0,0,0-1.144.738l7.619,11.84A.678.678,0,0,0,184.557,172.746Z" transform="translate(-176.258 -159.547)"/></g><g transform="translate(56.833 127.19)"><path class="j" d="M174.134,160.666c2.252-.444,3.71-5.515,4.16-8.653,2.956-.648,7.157-4.6,10.054-5.5-4.916,16.164-5.239,24.635-6.2,26.485-2.135,4.1-3.49,6.264-6.15,3.837s-4.806,2.415-6.643,0-5.064,2.694-5.914-.606,4.479-7.874,4.479-7.874S165.49,162.366,174.134,160.666Z" transform="translate(-163.346 -146.514)"/></g><g transform="translate(65.591 32.784)"><path class="k" d="M216.209,107.395C219.017,117.4,182.778,212.7,182.778,212.7l-15.527-3.909s5.905-21.834,4.963-29.818-.85-10.936,5.564-17.848,3.059-33.46,7.4-44.053S214.26,100.451,216.209,107.395Z" transform="translate(-167.251 -104.421)"/></g><g transform="translate(80.11 24.909)"><path class="n" d="M174.4,166.853a.678.678,0,0,0,.635-.437c2.64-6.917,2.16-14.471,1.693-21.773-.123-1.942-.247-3.88-.312-5.8a92.056,92.056,0,0,1,3.438-28.309,15.14,15.14,0,0,1,2.994-6.3c1.409-1.509,3.869-2.539,5.867-1.59a.682.682,0,0,0,.9-.323.673.673,0,0,0-.321-.9c-2.7-1.29-5.753.076-7.444,1.888a16.282,16.282,0,0,0-3.31,6.854,93.574,93.574,0,0,0-3.49,28.728c.067,1.933.193,3.885.316,5.84.455,7.159.926,14.563-1.606,21.2a.678.678,0,0,0,.635.922Z" transform="translate(-173.725 -100.91)"/></g><g transform="translate(91.6 57.012)"><path class="n" d="M179.528,165.221a.682.682,0,0,0,.637-.437c2.22-5.872,4.259-10.7,6.233-15.368,4.353-10.308,8.112-19.212,10.994-33.377a.68.68,0,0,0-1.332-.271c-2.855,14.033-6.412,22.455-10.916,33.119-1.976,4.683-4.021,9.521-6.251,15.413a.677.677,0,0,0,.395.877A.65.65,0,0,0,179.528,165.221Z" transform="translate(-178.848 -115.224)"/></g><g transform="translate(108.293 9.021)"><path class="n" d="M203.527,123.229a.707.707,0,0,0,.137-.013.68.68,0,0,0,.532-.8,50.458,50.458,0,0,0-16.785-28.43.68.68,0,1,0-.879,1.038,49.079,49.079,0,0,1,16.332,27.66A.68.68,0,0,0,203.527,123.229Z" transform="translate(-186.291 -93.826)"/></g></g></g><g transform="translate(517.167 52.895)"><g transform="translate(32.102 188.565)"><path class="k" d="M388.855,150.814c-.525-4.871-1.572-9.016-2.187-13.843H321.6c-1.263,4.151,3.149,8.121,2.738,11.129-1.451,10.647,7.5,35.809,7.5,35.809l2.384,13.838,3.18,52.455s-2.761,25.646-4.376,45.971c-.249,3.131-.359,6.19-.368,9.2a22.842,22.842,0,0,0,.123,2.35c.46,15.637,5.609,30.148,5.867,46.516l7.948,1.933s3.041-26.961,6.179-50.795h0v0c.531-4.03,1.063-7.966,1.586-11.674-.067.825-.137,1.657-.2,2.469-.247,3.131-.359,6.19-.368,9.2a23.46,23.46,0,0,0,.123,2.35c.46,15.637,5.609,30.148,5.869,46.516l7.946,1.933s3.044-26.961,6.179-50.795h0v0c2.243-17.054,4.537-32.509,5.8-35.335,1.965-4.4,5.5-42.481,9.193-69.267h0C390.38,190.563,389.934,160.834,388.855,150.814Z" transform="translate(-321.376 -136.971)"/></g><g transform="translate(0 70.477)"><g transform="translate(67.885 332.852)"><path class="i" d="M339.878,232.728l-2.547,13.847h28.23l-15.506-6.923-1.642-6.923Z" transform="translate(-337.331 -232.728)"/></g><g transform="translate(27.365 0.68)"><path class="o" d="M319.266,176.693s-.13,24.749,2.1,27.151h0l5.6,9.314,64.512,2.714.877-9.126,3.189-2.126a7.862,7.862,0,0,0,3.331-8.166l-16.514-42.331s-1.09-13.428-.238-19.961-14.876-42.277-17.9-46.269-15-4.719-20.082,0-18.88,25.4-20.053,29.755S319.266,176.693,319.266,176.693Z" transform="translate(-319.264 -84.622)"/></g><path class="o" d="M364.248,84.319c-6.719,1.626-35.8,18.494-38.52,23.935s-24.819,64.355-17,70.933,31.955-3.028,31.955-3.028l3.2-34.929Z" transform="translate(-307.063 -84.319)"/><g transform="translate(66.656 29.468)"><path class="p" d="M336.783,97.458" transform="translate(-336.783 -97.458)"/></g><g transform="translate(65.386 143.541)"><path class="q" d="M342.927,163.547a.669.669,0,0,1-.516-.236,26.6,26.6,0,0,1-6.19-14.24.673.673,0,0,1,.6-.747.682.682,0,0,1,.749.6,25.238,25.238,0,0,0,5.872,13.5.679.679,0,0,1-.072.958A.668.668,0,0,1,342.927,163.547Z" transform="translate(-336.217 -148.32)"/></g><g transform="translate(46.752 332.852)"><path class="i" d="M330.455,232.728l-2.547,13.847h28.23l-15.506-6.923-1.642-6.923Z" transform="translate(-327.909 -232.728)"/></g><g transform="translate(65.852 134.597)"><path class="q" d="M337.105,280.513a.649.649,0,0,1-.161-.018.682.682,0,0,1-.5-.823c.146-.59,14.518-58.936,16.989-69.948,2.456-10.936,1.112-56.893,1.1-57.355a.687.687,0,0,1,.184-.489l6.919-7.334a.68.68,0,0,1,.989.933l-6.726,7.13c.123,4.255,1.278,46.641-1.139,57.413-2.476,11.028-16.85,69.388-16.994,69.973A.683.683,0,0,1,337.105,280.513Z" transform="translate(-336.424 -144.332)"/></g><g transform="translate(36.147 122.547)"><path class="c" d="M323.862,140.664a.68.68,0,1,1,0-1.359l60.174-.345h0a.68.68,0,0,1,0,1.359l-60.172.345Z" transform="translate(-323.18 -138.959)"/></g></g><g transform="translate(145.12)"><path class="f" d="M378.669,85.09l1.319-7s5.369-5,6.473-5.825,4.557-9.386,4.833-10.216-6.352-1.243-6.352-1.243a45.484,45.484,0,0,0-.534-5.419c-.186-.715-1.7-3.923-2.38-1.749l-1.473,6.325-2.1,2.086c-1.088,1.5-2.346,7.87-2.346,7.87L371.768,79Q375.247,82.01,378.669,85.09Z" transform="translate(-371.768 -52.895)"/><g transform="translate(15.803 2.462)"><path class="f" d="M382.537,60.686c.763-1.745-.938-7.157-1.617-6.661s-.951,3.315-.951,3.315l.65,1.666S379.5,58.6,379.447,59s-.453,2.267-.453,2.267l-.179,3.584Z" transform="translate(-378.814 -53.993)"/></g></g><g transform="translate(87.204 20.997)"><path class="o" d="M358.363,152.33c6.908-7,25.976-23.848,32.124-32.465,5.811-8.144,23.256-48.314,23.256-48.314l-9.59-9.294-27.858,39.148s-19.75,12.185-30.35,16.608C352.384,129.7,351.236,141.051,358.363,152.33Z" transform="translate(-345.945 -62.257)"/></g><g transform="translate(62.857 71.166)"><path class="o" d="M335.089,84.626c54.28,3.665,57.158,8.46,42.259,25.709l-8.114,65.443-19.118-28.1Z" transform="translate(-335.089 -84.626)"/></g><g transform="translate(50.786 122.628)"><path class="r" d="M338.833,115.322,348,107.572l-9.169,23.73-9.126,1.927Z" transform="translate(-329.707 -107.572)"/></g><g transform="translate(41.66 125.29)"><path class="r" d="M325.638,123.2l3.258-14.439,14.993,5.09-10.7,21Z" transform="translate(-325.638 -108.758)"/></g><g transform="translate(23.307 135.247)"><path class="f" d="M321.954,126.04l6.089-5.564s4.847-6.744,6.87-7.278l.895,4.481s14.762-2,15.13-1.379,2.027,3.407,2.027,3.407l-4.436,1.541s1.642,1.7,1.453,2.442a5.592,5.592,0,0,1-.911,1.644,14.28,14.28,0,0,1,.684,3.793c.04,1.918-3.568.177-4.295,1.868s-11.349,2.871-12.851,2.873-15.155,3.371-15.155,3.371Z" transform="translate(-317.455 -113.198)"/></g><g transform="translate(16.633 144.268)"><path class="s" d="M324.34,119.243h-.049l-9.18-.662a.684.684,0,0,1-.63-.729.662.662,0,0,1,.724-.628l9.182.662a.679.679,0,0,1-.047,1.357Z" transform="translate(-314.479 -117.22)"/></g><g transform="translate(22.59 93.28)"><path class="c" d="M317.814,147.032a.7.7,0,0,1-.274-.056.679.679,0,0,1-.348-.895,172.911,172.911,0,0,0,11.55-37.473,23.2,23.2,0,0,0,.545-7.094,8.143,8.143,0,0,0-3.129-5.791.681.681,0,0,1,.776-1.119,9.5,9.5,0,0,1,3.7,6.744,24.355,24.355,0,0,1-.556,7.509,174.153,174.153,0,0,1-11.647,37.767A.674.674,0,0,1,317.814,147.032Z" transform="translate(-317.135 -94.486)"/></g><g transform="translate(65.597 102.901)"><path class="c" d="M364.806,148.589a.684.684,0,0,1-.59-.341L336.4,99.792a.68.68,0,0,1,1.18-.677L365.4,147.571a.679.679,0,0,1-.251.926A.67.67,0,0,1,364.806,148.589Z" transform="translate(-336.311 -98.776)"/></g><g transform="translate(40.903 22.535)"><path class="f" d="M362.9,114.783l1.938-9.467s6.04-.357,7.691-3.526c.691-1.326.188-5.941-1.7-12.876-.2-.742,3.005-.177,2.783-.933-.435-1.469-7.529-6.441-8-9.272-1.736-10.364-3.443-12.721-7.229-14.554-8.415-4.071-33.649,2.458-33.068,14.255s6.022,16.7,16.642,30.188l-.37,2.285A10.837,10.837,0,0,0,354.047,123.3h0A10.835,10.835,0,0,0,362.9,114.783Z" transform="translate(-325.301 -62.943)"/></g><g transform="translate(36.944 17.346)"><path class="i" d="M344.146,111.475l2.642-12.513s-10.463-5.937-5.966-11.781,17.853,13.706,17.853,13.706l1.18-2.9L353.817,85.3s4.248-3.932,3.351-9.009c0,0,11.775-4.658,10.806-12.936s-36.488,4.273-42.559,11.261S328.615,95.513,344.146,111.475Z" transform="translate(-323.535 -60.629)"/></g></g><g transform="translate(399.886 87.294)"><g transform="translate(22.015)"><path class="t" d="M290.537,132.535c-4.4,10.285-19.483,12.16-24.458,22.181-3.342,6.731-.74,15.265,4.49,20.663s12.548,8.22,19.8,10.211c16.155,4.434,33.572,5.454,49.586.532,5.742-1.767,11.337-4.333,15.814-8.339s7.751-9.579,8.128-15.572-2.487-12.3-7.729-15.235c-3.176-1.774-7.06-2.317-9.77-4.746-4.008-3.6-3.941-9.765-3.793-15.15a192.051,192.051,0,0,0-1.527-30.054c-1-7.682-2.669-15.731-7.861-21.477-5.67-6.275-15.031-8.657-23.231-6.589S294.9,77.194,291.192,84.794a38.942,38.942,0,0,0-2.664,24.77C290.111,117.237,293.617,125.333,290.537,132.535Z" transform="translate(-264.586 -68.232)"/></g><g transform="translate(19.362 178.194)"><path class="f" d="M275.3,214.43l-.094,19.824s-8.105,27.643-9.142,33.958c-.839,5.114-2.182,50.846-2.662,68.035-.112,4.03,8.563,2.146,8.563,2.146l.525-2.146,42.795-174.254.958,174.268s8.915,4.221,9.88-.011c3.99-17.505,14.287-62.953,14.809-68.038.646-6.316-2.267-33.958-2.267-33.958l4.459-19.829L323.77,147.684Z" transform="translate(-263.404 -147.684)"/></g><g transform="translate(5.39 366.757)"><path class="i" d="M271.147,231.759c-.112,4.026-.177,6.493-.177,6.493l-13.8,9.229h21.419l1.117-13.576.525-2.146Z" transform="translate(-257.174 -231.759)"/></g><g transform="translate(72.203 366.757)"><path class="i" d="M296.844,231.759h-9.88l.085,15.722h19.793l-11.559-8.89S295.881,235.98,296.844,231.759Z" transform="translate(-286.964 -231.759)"/></g><g transform="translate(0 64.986)"><path class="f" d="M293.3,97.208c-7.089,4.367-37.134,37.993-38.5,42.073s35.3,49.409,35.3,49.409l5.271-9.153-20.3-35.042,23.612-27.2Z" transform="translate(-254.771 -97.208)"/></g><g transform="translate(99.992 66.431)"><path class="f" d="M306.453,97.852c7.089,4.367,35.418,36.549,36.777,40.628s-35.3,49.409-35.3,49.409l-5.271-9.153,20.3-35.042-23.61-27.2Z" transform="translate(-299.354 -97.852)"/></g><g transform="translate(30.454 52.357)"><path class="u" d="M269.336,247.131l-.179,37.024h67.822l8.814-39.209c6.41-44.342-14.881-71.1-14.881-71.1l7.217-31.751c6.5-6.134,6.856-15.877,6.856-20.208V105.648s-28.867-14.071-35.362-14.071-33.2,12.629-33.2,12.629v17.321C274.263,134.157,284,142.455,284,142.455l5.775,31.39S262.933,208.979,269.336,247.131Z" transform="translate(-268.349 -91.577)"/></g><g transform="translate(65.926 40.257)"><path class="f" d="M284.165,86.182v15.875s8.04,13.591,15.428.316l-.646-16.191Z" transform="translate(-284.165 -86.182)"/></g><g transform="translate(55.224 2.346)"><path class="f" d="M293.334,69.558c-13.692,1.794-15.881,17.615-12.591,30.116C283.2,109,288.785,118.422,297.57,118.2s14.078-12.234,15.65-19.6C315.751,86.742,315.282,66.678,293.334,69.558Z" transform="translate(-279.393 -69.278)"/></g><g transform="translate(51.882 25.434)"><path class="j" d="M284.227,83.422s-.529-5.241-4.757-3.492.931,13.558,5.636,12.2S284.227,83.422,284.227,83.422Z" transform="translate(-277.903 -79.573)"/></g><g transform="translate(84.01 24.945)"><path class="f" d="M294.547,83.428s.152-5.264,4.495-3.824.045,13.589-4.748,12.573S294.547,83.428,294.547,83.428Z" transform="translate(-292.228 -79.355)"/></g><g transform="translate(67.161 48.691)"><path class="v" d="M291.016,93.189a11.753,11.753,0,0,1-5.966-1.595.68.68,0,1,1,.691-1.171A10.76,10.76,0,0,0,296.9,90.06a.68.68,0,1,1,.765,1.124A11.843,11.843,0,0,1,291.016,93.189Z" transform="translate(-284.716 -89.942)"/></g><g transform="translate(49.962 1.412)"><path class="d" d="M307.36,78.726c.184,8.319-1.386,16.855-5.755,23.937s-11.793,12.526-20.08,13.289c-2.938-7.188-5.129-15.085-4.3-22.807s4.445-15.327,10.667-19.972,15.157-5.849,21.935-2.061c5.674,3.171,9.211,9.3,10.73,15.617s1.382,9.819,1.124,16.314C312.189,98,306.035,89.39,307.36,78.726Z" transform="translate(-277.047 -68.862)"/></g><g transform="translate(19.184 368.904)"><path class="w" d="M263.324,232.716" transform="translate(-263.324 -232.716)"/></g><g transform="translate(93.944 142.301)"><path class="f" d="M306.013,136.695s-2.153-5.125-2.833-5.013-6.121,6.233-6.459,7.027.794,2.38.794,2.38l2.153-1.135.906,3.174h2.131s-2.245,1.588-2.131,2.721a1.823,1.823,0,0,0,1.247,1.474l3.353-2.041,2.472,4.533,3.638-3.965Z" transform="translate(-296.658 -131.68)"/></g><g transform="translate(93.267 148.65)"><path class="v" d="M302.2,144.482a.752.752,0,0,1-.2-.029,2.462,2.462,0,0,1-1.727-2.059,2.951,2.951,0,0,1,.989-2.106h-.312a.68.68,0,0,1-.653-.493l-.677-2.368-1.413.742a.673.673,0,0,1-.868-.2c-.318-.446-1.323-1.978-.866-3.043a.668.668,0,0,1,.884-.354.682.682,0,0,1,.363.89,2.273,2.273,0,0,0,.41,1.218l1.595-.841a.681.681,0,0,1,.971.415l.767,2.68h1.617a.68.68,0,0,1,.393,1.236c-.906.641-1.888,1.675-1.846,2.095a1.03,1.03,0,0,0,.525.776l3.046-1.855a.681.681,0,0,1,.706,1.164l-3.355,2.039A.679.679,0,0,1,302.2,144.482Z" transform="translate(-296.356 -134.511)"/></g><g transform="translate(35.336 142.301)"><path class="f" d="M275.8,136.695s2.153-5.125,2.833-5.013,6.118,6.233,6.459,7.027-.794,2.38-.794,2.38l-2.153-1.135-.906,3.174H279.1s2.245,1.588,2.131,2.721a1.823,1.823,0,0,1-1.247,1.474l-3.355-2.041-2.469,4.533-3.638-3.965Z" transform="translate(-270.526 -131.68)"/></g><g transform="translate(40.763 148.654)"><path class="v" d="M276.981,144.48a.687.687,0,0,1-.354-.1l-3.353-2.039a.681.681,0,1,1,.706-1.164l3.048,1.855a1.036,1.036,0,0,0,.525-.776c.04-.419-.942-1.453-1.848-2.095a.681.681,0,0,1,.395-1.236h1.617l.765-2.68a.671.671,0,0,1,.386-.437.68.68,0,0,1,.583.02l1.6.843a2.282,2.282,0,0,0,.406-1.218.68.68,0,0,1,1.249-.536c.458,1.063-.545,2.6-.863,3.043a.685.685,0,0,1-.868.206l-1.413-.745-.677,2.368a.682.682,0,0,1-.655.493h-.309a2.966,2.966,0,0,1,.987,2.106,2.462,2.462,0,0,1-1.727,2.059A.752.752,0,0,1,276.981,144.48Z" transform="translate(-272.946 -134.513)"/></g></g></g></svg>