<svg xmlns="http://www.w3.org/2000/svg" width="59.098" height="54.793" viewBox="0 0 59.098 54.793"><defs><style>.a{fill:#e5e5e5;}</style></defs><path class="a" d="M30.667-176.206A47.172,47.172,0,0,0,24.4-164.074a43.814,43.814,0,0,0-2.935,15.459,23.273,23.273,0,0,0,.2,3.522,11.661,11.661,0,0,1,4.892-1.174,8.429,8.429,0,0,1,6.458,2.74,9.678,9.678,0,0,1,2.544,6.849,11.04,11.04,0,0,1-3.131,8.317,10.558,10.558,0,0,1-7.632,3.033,12,12,0,0,1-10.176-4.99q-3.718-4.99-3.718-12.818,0-8.023,4.207-19.373T25.383-180.12Zm34.441,0a47.172,47.172,0,0,0-6.262,12.133,43.814,43.814,0,0,0-2.935,15.459,23.274,23.274,0,0,0,.2,3.522A11.661,11.661,0,0,1,61-146.266a8.429,8.429,0,0,1,6.458,2.74A9.678,9.678,0,0,1,70-136.677a11.04,11.04,0,0,1-3.131,8.317,10.558,10.558,0,0,1-7.632,3.033,12,12,0,0,1-10.176-4.99q-3.718-4.99-3.718-12.818,0-8.023,4.207-19.373T59.824-180.12Z" transform="translate(-10.902 180.12)"/></svg>