<svg xmlns="http://www.w3.org/2000/svg" width="59.098" height="54.793" viewBox="0 0 59.098 54.793"><defs><style>.a{fill:#e5e5e5;}</style></defs><path class="a" d="M19.765,50.879A47.172,47.172,0,0,1,13.5,38.746a43.814,43.814,0,0,1-2.935-15.459,23.273,23.273,0,0,1,.2-3.522,11.66,11.66,0,0,0,4.892,1.174,8.429,8.429,0,0,0,6.458-2.74,9.678,9.678,0,0,0,2.544-6.849,11.04,11.04,0,0,0-3.131-8.317A10.558,10.558,0,0,0,13.894,0,12,12,0,0,0,3.718,4.99Q0,9.98,0,17.808q0,8.023,4.207,19.373T14.481,54.793Zm34.441,0a47.172,47.172,0,0,1-6.262-12.133,43.814,43.814,0,0,1-2.935-15.459,23.274,23.274,0,0,1,.2-3.522A11.66,11.66,0,0,0,50.1,20.939a8.429,8.429,0,0,0,6.458-2.74A9.678,9.678,0,0,0,59.1,11.35a11.04,11.04,0,0,0-3.131-8.317A10.558,10.558,0,0,0,48.335,0,12,12,0,0,0,38.159,4.99q-3.718,4.99-3.718,12.818,0,8.023,4.207,19.373T48.922,54.793Z" transform="translate(59.098 54.793) rotate(180)"/></svg>