<svg xmlns="http://www.w3.org/2000/svg" width="675" height="550.164" viewBox="0 0 675 550.164"><defs><style>.a{fill:#563adf;}.b{fill:#6951e3;}.c{fill:#6a53e3;}.d{fill:#6b53e3;}.e{opacity:0.5;}.f{fill:#8672ed;}.g{fill:#ffc371;}.h{fill:#ffa658;}.i{fill:#b4a6ff;}.j{fill:#ff5862;}.k{fill:#ff2e57;}.l{fill:#f2bc9c;}.m{fill:#f2a374;}.n{fill:#6fd395;}.o{fill:#130e47;}.p{fill:#1b1464;}.q{fill:#fff;}.r{fill:#cb1ce6;}.s{fill:#35105f;}.t{fill:#2a2370;}.u{fill:#42c975;}</style></defs><g transform="translate(-146.461 -303.69)"><path class="a" d="M426.1,882.429c48.685-.468,300.528,51.946,321.027-196.553S714.3,376.342,632.058,376.342c-150.714,0-150.738,96.205-215.895,87.782s-210.238-67.573-259.39,73.942c-35.983,103.6,30.3,297.566,74.589,323.773S426.1,882.429,426.1,882.429Z" transform="translate(0 -43.925)"/><g transform="translate(148.717 644.596)"><path class="b" d="M294.606,1357.29s-140.019-.493-142.4-74.692,105.929,19.352,105.929,19.352-111.492-84.354-67.111-123.1S280.286,1289.8,280.286,1289.8s-44.994-124.129-.912-123.96,29.23,190.064,29.23,190.064Z" transform="translate(-152.167 -1165.844)"/><g transform="translate(50.872 4.616)"><path class="b" d="M355.383,1177.517l.136,5.636c.055,1.877.063,3.756.186,5.631l.272,5.627c.049.938.079,1.875.144,2.812l.206,2.809.411,5.616c.06.936.147,1.871.24,2.806l.268,2.8.536,5.6.64,5.594c1.682,14.92,3.918,29.771,6.408,44.578q3.791,22.2,8.226,44.295,4.4,22.1,9.108,44.141l1.3,6.089-3.75-4.97q-13.781-18.261-27.189-36.807c-2.237-3.089-4.426-6.213-6.633-9.323s-4.385-6.242-6.562-9.374l-3.26-4.7-3.223-4.728-3.206-4.74-3.162-4.77-3.159-4.771-3.109-4.8-3.105-4.806-3.042-4.848-3.03-4.854-2.971-4.892c-.985-1.633-1.991-3.254-2.96-4.9l-2.9-4.936c-.951-1.654-1.939-3.285-2.859-4.957l-2.8-4.991c-1.892-3.312-3.659-6.694-5.475-10.048l-1.35-2.521-1.306-2.545-2.61-5.089-.646-1.275-.62-1.289-1.24-2.577-2.478-5.153,2.666,5.058,1.332,2.528.666,1.264.693,1.25,2.749,5.01,1.373,2.5,1.418,2.481c1.905,3.3,3.76,6.624,5.74,9.878l2.93,4.9c.964,1.641,2,3.244,2.989,4.867l2.992,4.865c1,1.621,2.035,3.218,3.05,4.828l3.06,4.821,3.119,4.784,3.12,4.783,3.167,4.752,3.17,4.75,3.22,4.716,3.223,4.714,3.267,4.685,3.259,4.69,3.294,4.665c2.2,3.108,4.394,6.219,6.632,9.3s4.442,6.186,6.7,9.251q13.429,18.484,27.261,36.681l-2.453,1.119c-3.079-14.716-6.127-29.441-8.962-44.212-2.811-14.775-5.5-29.579-7.785-44.452-2.312-14.867-4.263-29.8-5.626-44.785l-.488-5.622-.384-5.631-.192-2.815c-.068-.937-.129-1.876-.164-2.816l-.258-5.636-.129-2.818c-.039-.939-.044-1.88-.068-2.82l-.114-5.64c-.054-1.879.006-3.76.02-5.64Z" transform="translate(-280.822 -1177.517)"/></g><g transform="translate(13.434 113.605)"><path class="b" d="M186.142,1453.15a321.438,321.438,0,0,0,30.64,22l4.01,2.47c1.339.819,2.65,1.681,4.019,2.452l4.067,2.373c1.355.79,2.7,1.594,4.091,2.329l4.124,2.271c1.371.762,2.74,1.529,4.142,2.236l4.18,2.169,2.09,1.084c.7.363,1.409.693,2.112,1.04l4.222,2.088,2.111,1.045c.7.35,1.421.667,2.131,1l4.272,1.988,2.136.994c.711.334,1.435.638,2.15.964l4.3,1.922c1.435.64,2.866,1.291,4.319,1.888l4.344,1.834c1.446.616,2.884,1.255,4.346,1.834,11.627,4.8,23.4,9.27,35.22,13.691q-18.257-4.988-36.012-11.682c-2.966-1.086-5.892-2.277-8.831-3.439-1.473-.57-2.925-1.195-4.381-1.808l-4.368-1.843c-1.464-.6-2.9-1.267-4.334-1.923l-4.313-1.972c-.717-.333-1.442-.648-2.153-.995l-2.133-1.038-4.265-2.077c-.707-.356-1.422-.692-2.121-1.062l-2.1-1.107-4.2-2.214c-1.407-.723-2.782-1.5-4.16-2.283l-4.129-2.339c-1.383-.768-2.725-1.607-4.076-2.432l-4.049-2.475c-1.36-.808-2.673-1.693-3.994-2.562l-3.953-2.625A215.618,215.618,0,0,1,186.142,1453.15Z" transform="translate(-186.142 -1453.15)"/></g><g transform="translate(87.402 55.069)"><path class="b" d="M373.454,1305.114c.586,3.429.976,6.867,1.3,10.31s.569,6.888.75,10.338.293,6.9.314,10.36-.006,6.918-.24,10.389c-.588-3.429-.979-6.867-1.3-10.31s-.569-6.888-.747-10.338-.291-6.9-.311-10.361S373.223,1308.585,373.454,1305.114Z" transform="translate(-373.208 -1305.114)"/></g><g transform="translate(68.202 25.086)"><path class="b" d="M324.9,1229.286c.585,3.429.976,6.867,1.3,10.309s.569,6.889.75,10.338.294,6.9.314,10.36-.006,6.918-.24,10.389c-.588-3.428-.98-6.868-1.3-10.31s-.569-6.889-.747-10.338-.291-6.9-.311-10.361S324.664,1232.757,324.9,1229.286Z" transform="translate(-324.649 -1229.286)"/></g><g transform="translate(102.658 76.567)"><path class="b" d="M411.854,1359.483c.692,3.45,1.189,6.915,1.618,10.386s.784,6.948,1.072,10.43.508,6.97.636,10.466.21,6.995.083,10.511c-.694-3.45-1.193-6.915-1.621-10.386s-.783-6.948-1.068-10.431-.506-6.97-.633-10.466S411.731,1363,411.854,1359.483Z" transform="translate(-411.791 -1359.483)"/></g><g transform="translate(22.598 100.383)"><path class="b" d="M209.318,1419.712a65.013,65.013,0,0,1,2.691,6.51q1.182,3.3,2.152,6.666t1.744,6.784a64.222,64.222,0,0,1,1.2,6.941,64.193,64.193,0,0,1-2.693-6.509q-1.182-3.3-2.149-6.667t-1.742-6.785A65.26,65.26,0,0,1,209.318,1419.712Z" transform="translate(-209.318 -1419.712)"/></g><g transform="translate(39.944 108.253)"><path class="b" d="M253.22,1439.616a65.774,65.774,0,0,1,1.715,6.869q.69,3.457,1.16,6.945t.739,7a64.954,64.954,0,0,1,.178,7.078,64.872,64.872,0,0,1-1.718-6.868q-.689-3.458-1.157-6.945t-.736-7A65.664,65.664,0,0,1,253.22,1439.616Z" transform="translate(-253.187 -1439.616)"/></g><g transform="translate(56.389 114.134)"><path class="b" d="M294.782,1454.49c.774,2.484,1.343,5,1.866,7.516s.943,5.054,1.31,7.6.667,5.094.89,7.657.373,5.136.329,7.738c-.776-2.484-1.347-5-1.868-7.516s-.943-5.055-1.308-7.6-.665-5.094-.888-7.657S294.741,1457.091,294.782,1454.49Z" transform="translate(-294.776 -1454.49)"/></g><g transform="translate(75.782 122.395)"><path class="b" d="M343.821,1475.381c.873,2.867,1.541,5.767,2.162,8.674s1.141,5.83,1.608,8.762.866,5.874,1.189,8.828.573,5.921.63,8.917c-.875-2.867-1.544-5.766-2.165-8.673s-1.141-5.83-1.605-8.762-.864-5.874-1.186-8.829S343.88,1478.377,343.821,1475.381Z" transform="translate(-343.821 -1475.381)"/></g><g transform="translate(95.796 134.827)"><path class="b" d="M394.488,1506.821a70.777,70.777,0,0,1,1.654,7.154q.658,3.6,1.1,7.222t.676,7.274a69.763,69.763,0,0,1,.114,7.343,69.877,69.877,0,0,1-1.657-7.154q-.658-3.6-1.095-7.223t-.673-7.274A70.593,70.593,0,0,1,394.488,1506.821Z" transform="translate(-394.437 -1506.821)"/></g><g transform="translate(129.736 30.817)"><path class="b" d="M492.9,1243.779c-.666,3.021-1.526,5.97-2.43,8.9s-1.906,5.831-2.957,8.71-2.167,5.735-3.356,8.564-2.446,5.634-3.888,8.37c.664-3.021,1.522-5.971,2.427-8.9s1.906-5.831,2.96-8.71,2.17-5.734,3.358-8.563S491.462,1246.516,492.9,1243.779Z" transform="translate(-480.27 -1243.779)"/></g><g transform="translate(135.359 66.72)"><path class="b" d="M508.276,1334.579c-.766,3.178-1.715,6.288-2.728,9.373s-2.1,6.144-3.241,9.179-2.354,6.046-3.649,9.024-2.634,5.94-4.168,8.828c.764-3.18,1.712-6.289,2.725-9.374s2.1-6.144,3.244-9.178,2.356-6.046,3.652-9.024S506.744,1337.468,508.276,1334.579Z" transform="translate(-494.491 -1334.579)"/></g><g transform="translate(139.707 104.121)"><path class="b" d="M515.591,1429.165a47.181,47.181,0,0,1-1.825,5.705q-1.066,2.78-2.333,5.467t-2.717,5.286a46.694,46.694,0,0,1-3.229,5.045,46.5,46.5,0,0,1,1.822-5.706q1.066-2.78,2.335-5.466t2.719-5.285A47.157,47.157,0,0,1,515.591,1429.165Z" transform="translate(-505.487 -1429.165)"/></g></g><g transform="translate(571.921 303.69)"><g transform="translate(28.953 0)"><path class="c" d="M1334.825,369.978c-1.708-5.574-3.334-11.174-4.811-16.817s-2.82-11.323-3.905-17.06a124.986,124.986,0,0,1-2.231-17.382c-.063-1.464-.081-2.932-.029-4.4a31.455,31.455,0,0,1,.434-4.409,12.268,12.268,0,0,1,1.474-4.278,4.212,4.212,0,0,1,1.776-1.656,3.19,3.19,0,0,1,1.253-.286,3.967,3.967,0,0,1,1.236.2,6.539,6.539,0,0,1,2.047,1.172,12.588,12.588,0,0,1,1.622,1.6,23.82,23.82,0,0,1,2.533,3.685,43.918,43.918,0,0,1,3.475,8.138,66.184,66.184,0,0,1,2.987,17.359,73.916,73.916,0,0,1-6.909,34.334l.079-.28-4.633,44.982-4.752,44.968-4.86,44.957-4.953,44.947q-4.99,44.942-10.2,89.861l-2.633,22.456L1302.5,673.3l-1.354,11.224c-1.816,14.964-3.585,29.934-5.476,44.889,1.385-15.012,2.891-30.009,4.351-45.012l1.1-11.251,1.137-11.247,2.28-22.495q4.625-44.983,9.455-89.942l4.875-44.955,4.967-44.945,5.075-44.933,5.2-44.92.018-.151.062-.128a72.319,72.319,0,0,0,7.064-33.531,66.042,66.042,0,0,0-2.727-17.044,42.776,42.776,0,0,0-3.278-7.962,22.7,22.7,0,0,0-2.367-3.543,11.462,11.462,0,0,0-1.468-1.485,5.553,5.553,0,0,0-1.709-1.018,2.963,2.963,0,0,0-.91-.164,2.209,2.209,0,0,0-.864.186,3.272,3.272,0,0,0-1.378,1.278,11.433,11.433,0,0,0-1.394,3.928,30.67,30.67,0,0,0-.476,4.281c-.07,1.442-.071,2.89-.027,4.339a124.283,124.283,0,0,0,2,17.309A341.241,341.241,0,0,0,1334.825,369.978Z" transform="translate(-1295.674 -303.69)"/></g><g transform="translate(26.383 20.18)"><path class="c" d="M1330.167,409.327c-5.747-8.2-11.615-16.313-18-23.987a120.325,120.325,0,0,0-10.119-10.94,38.919,38.919,0,0,0-5.731-4.531,9.433,9.433,0,0,0-3.081-1.33,1.889,1.889,0,0,0-1.19.095,1.267,1.267,0,0,0-.587.831,4.68,4.68,0,0,0-.146,1.506,10.562,10.562,0,0,0,.219,1.686,21.26,21.26,0,0,0,1.042,3.4,41.816,41.816,0,0,0,3.309,6.487,58.843,58.843,0,0,0,9.264,11.366,61.7,61.7,0,0,0,5.6,4.752,56.072,56.072,0,0,0,6.121,4.031,51.848,51.848,0,0,0,13.55,5.387l-.974.126a86.99,86.99,0,0,0,25.9-21.322,74.664,74.664,0,0,0,9.221-14.061,46.143,46.143,0,0,0,3.07-7.754,23.872,23.872,0,0,0,.8-3.99,10.787,10.787,0,0,0,.035-1.934,4.164,4.164,0,0,0-.408-1.61,1.09,1.09,0,0,0-.862-.642,3.122,3.122,0,0,0-1.531.3,13.511,13.511,0,0,0-3.291,2.182,48.137,48.137,0,0,0-5.752,6.094,138.848,138.848,0,0,0-9.776,13.944c-6.059,9.656-11.444,19.746-16.678,29.907a322.085,322.085,0,0,1,15.482-30.633,140.369,140.369,0,0,1,9.513-14.38,48.817,48.817,0,0,1,5.874-6.475,15.443,15.443,0,0,1,3.79-2.593,5.169,5.169,0,0,1,2.629-.5,3.22,3.22,0,0,1,1.5.556,3.524,3.524,0,0,1,1.028,1.146,6.283,6.283,0,0,1,.729,2.49,13.066,13.066,0,0,1,.009,2.346,24.355,24.355,0,0,1-.81,4.418,48.518,48.518,0,0,1-3.131,8.205,76.211,76.211,0,0,1-9.376,14.659,88.391,88.391,0,0,1-26.651,22.062l-.466.25-.509-.124a57.272,57.272,0,0,1-26.413-15,61.271,61.271,0,0,1-9.509-11.97,40.987,40.987,0,0,1-3.386-6.927,23.531,23.531,0,0,1-1.072-3.79,12.708,12.708,0,0,1-.218-2.037,6.685,6.685,0,0,1,.283-2.2,3.74,3.74,0,0,1,.582-1.142,3.072,3.072,0,0,1,1.081-.9,3.288,3.288,0,0,1,1.3-.331,4.715,4.715,0,0,1,1.183.089,11.243,11.243,0,0,1,3.752,1.672,38.4,38.4,0,0,1,5.909,4.912,116.955,116.955,0,0,1,9.927,11.388A288.552,288.552,0,0,1,1330.167,409.327Z" transform="translate(-1289.175 -354.724)"/></g><g transform="translate(0 46.532)"><path class="c" d="M1289.2,463.541q-3.932-3.021-7.9-6t-7.939-5.933c-5.32-3.918-10.7-7.757-16.159-11.457s-10.988-7.31-16.7-10.556a90.646,90.646,0,0,0-8.741-4.43,26.8,26.8,0,0,0-4.508-1.536,6.313,6.313,0,0,0-2.088-.172.918.918,0,0,0-.518.2.262.262,0,0,0-.06.114.875.875,0,0,0-.027.272,4.886,4.886,0,0,0,.636,1.869,16.449,16.449,0,0,0,1.242,1.96,37.278,37.278,0,0,0,3.1,3.671,78.973,78.973,0,0,0,7.2,6.588,116.038,116.038,0,0,0,16.223,10.987,118.912,118.912,0,0,0,17.784,8.195,93.316,93.316,0,0,0,18.922,4.739l-.332-.006a164.055,164.055,0,0,0,36.855-7.919,93.6,93.6,0,0,0,17.07-7.775,46.135,46.135,0,0,0,7.482-5.458,20.074,20.074,0,0,0,2.975-3.35,8.045,8.045,0,0,0,.956-1.84,2.758,2.758,0,0,0,.131-1.649,1.793,1.793,0,0,0-1.008-1.065,5.774,5.774,0,0,0-1.922-.513,17.283,17.283,0,0,0-4.467.2,50.229,50.229,0,0,0-8.99,2.461,126.684,126.684,0,0,0-17.16,7.936c-5.569,3.006-11,6.281-16.329,9.722q-4,2.582-7.916,5.284-3.938,2.675-7.81,5.451,3.744-2.945,7.56-5.8,3.833-2.833,7.746-5.559c5.223-3.627,10.559-7.1,16.067-10.312a128.241,128.241,0,0,1,17.191-8.461,50.845,50.845,0,0,1,9.309-2.729,19.272,19.272,0,0,1,5.017-.3,7.857,7.857,0,0,1,2.661.682,4.56,4.56,0,0,1,1.275.893,3.711,3.711,0,0,1,.872,1.429,4.908,4.908,0,0,1-.094,3.028,10.182,10.182,0,0,1-1.18,2.4,21.344,21.344,0,0,1-3.273,3.81,48.474,48.474,0,0,1-7.817,5.839,95.324,95.324,0,0,1-17.459,8.175,146.239,146.239,0,0,1-18.5,5.179,180.129,180.129,0,0,1-18.951,2.974l-.169.017-.163-.023a96.038,96.038,0,0,1-19.461-4.936,115.177,115.177,0,0,1-18.142-8.484,118.524,118.524,0,0,1-16.466-11.381,75.539,75.539,0,0,1-7.334-6.886,39.634,39.634,0,0,1-3.229-3.948,18.508,18.508,0,0,1-1.371-2.246,9.576,9.576,0,0,1-.546-1.281,5.032,5.032,0,0,1-.289-1.541,2.921,2.921,0,0,1,.14-.95,2.354,2.354,0,0,1,.573-.937,2.929,2.929,0,0,1,1.711-.777,8.143,8.143,0,0,1,2.826.24,28.573,28.573,0,0,1,4.839,1.726,85.573,85.573,0,0,1,8.848,4.7c5.7,3.418,11.19,7.142,16.567,11.006s10.635,7.883,15.84,11.964q3.9,3.064,7.757,6.181Q1285.4,460.362,1289.2,463.541Z" transform="translate(-1222.452 -421.369)"/></g></g><g transform="translate(579.118 405.508)"><path class="d" d="M1313.962,908c19.061-4.876,179.968-112.591,168.443-204.792s-113.478,23.937-113.478,23.937,58.955-109.489,39.451-149.826-99.241-8.605-135.616,135.992-31.941,202.667-31.941,202.667Z" transform="translate(-1240.652 -561.188)"/><g class="e" transform="translate(46.594 16.13)"><path class="d" d="M1533.257,705.708q-20.917,27.806-42.023,55.466l-21.107,27.659-21.149,27.627-21.18,27.6-21.235,27.559-21.248,27.55-21.3,27.511-5.528,7.141,2.468-8.692q11.494-40.477,23.177-80.9l11.673-40.425,11.721-40.412,11.8-40.391,11.871-40.369q11.932-40.351,24.048-80.651-10.956,40.631-22.255,81.164l-11.28,40.539L1410.35,764.2l-11.43,40.5-11.477,40.482q-11.536,40.465-23.126,80.914l-3.06-1.552,21.358-27.465,21.407-27.426,21.42-27.416,21.476-27.373,21.506-27.349,21.548-27.316Q1511.552,732.9,1533.257,705.708Z" transform="translate(-1358.489 -601.982)"/></g><g class="e" transform="translate(174.476 130.273)"><path class="d" d="M1684.684,890.648c.277,3.981.431,7.958.571,11.935.082,1.989.105,3.977.161,5.965s.089,3.976.115,5.964q.081,5.964.064,11.924t-.11,11.921l-2.04-1.78c2.292-.369,4.584-.74,6.88-1.087s4.59-.7,6.888-1.037q6.89-1.015,13.8-1.9,3.456-.448,6.916-.858l6.928-.778c4.625-.477,9.251-.953,13.9-1.255-4.521,1.141-9.069,2.109-13.617,3.077l-6.833,1.387q-3.42.669-6.845,1.308-6.851,1.276-13.72,2.429-3.435.582-6.874,1.13c-2.291.374-4.586.726-6.881,1.078l-2.09.321.05-2.1q.143-5.958.372-11.915t.547-11.912c.106-1.985.221-3.97.356-5.954s.24-3.969.4-5.954C1683.932,898.582,1684.247,894.614,1684.684,890.648Z" transform="translate(-1681.904 -890.648)"/></g><g class="e" transform="translate(131.488 172.827)"><path class="d" d="M1577.731,998.269c.164,5.055.174,10.1.191,15.153-.023,5.047-.05,10.094-.145,15.138s-.217,10.087-.379,15.127-.354,10.08-.57,15.119l-1.882-1.853,7.705-.448,7.708-.4c5.14-.241,10.281-.473,15.426-.643,5.144-.187,10.292-.3,15.44-.405,5.151-.063,10.3-.14,15.462-.05-5.112.71-10.234,1.252-15.355,1.809-5.124.51-10.248,1.022-15.376,1.455-5.128.45-10.26.838-15.391,1.216l-7.7.531-7.7.481-1.973.124.091-1.976q.346-7.557.769-15.11t.96-15.1c.352-5.033.77-10.062,1.195-15.092C1576.663,1008.318,1577.12,1003.29,1577.731,998.269Z" transform="translate(-1573.186 -998.269)"/></g><g class="e" transform="translate(114.756 19.455)"><path class="d" d="M1530.871,610.391c1.7,3.408,3.224,6.877,4.748,10.348q2.257,5.216,4.363,10.488c1.4,3.517,2.776,7.039,4.093,10.585s2.611,7.1,3.875,10.664l-2.452-.968,3.97-1.961,3.988-1.926c2.667-1.267,5.339-2.525,8.033-3.742s5.393-2.42,8.122-3.567,5.462-2.285,8.245-3.324c-2.476,1.642-5,3.193-7.534,4.719s-5.089,3.018-7.658,4.476-5.155,2.888-7.747,4.3l-3.9,2.1-3.92,2.061-1.755.922-.7-1.892c-1.307-3.549-2.6-7.1-3.838-10.678s-2.446-7.159-3.62-10.756-2.284-7.218-3.35-10.854C1532.788,617.741,1531.744,614.1,1530.871,610.391Z" transform="translate(-1530.871 -610.391)"/></g><g class="e" transform="translate(73.531 85.946)"><path class="d" d="M1426.614,778.545c3.185,4.461,6.219,9.012,9.243,13.569,3,4.57,5.988,9.15,8.9,13.773s5.813,9.256,8.657,13.92,5.666,9.344,8.462,14.038l-2.762-.331,4.629-4.606,4.656-4.579q4.679-4.556,9.4-9.066,2.361-2.256,4.757-4.479c1.594-1.484,3.173-2.985,4.789-4.448,3.211-2.947,6.439-5.877,9.743-8.731-2.817,3.337-5.709,6.6-8.62,9.843-1.445,1.632-2.927,3.228-4.393,4.839s-2.938,3.217-4.424,4.807q-4.443,4.79-8.958,9.508l-4.526,4.707-4.553,4.681-1.578,1.623-1.183-1.954q-4.246-7.01-8.416-14.066t-8.22-14.183c-2.712-4.745-5.352-9.532-7.975-14.33C1431.646,788.27,1429.055,783.452,1426.614,778.545Z" transform="translate(-1426.614 -778.545)"/></g></g><path class="a" d="M1315.034,1193.6s26.817-67.044,76.845-52.31,11.352,52.368,24.947,63.547,41.6-33.57,64.01-11.006c34.328,34.57-2.149,87.251-55.177,105.906S1363,1331.127,1363,1331.127Z" transform="translate(-706.505 -505.124)"/><path class="b" d="M1337.519,1352.086s4.027-26.577,33.156-26.6,58.587,28.926,47.512,67.333-35.67,45.88-35.67,45.88Z" transform="translate(-720.099 -617.766)"/><path class="f" d="M749.883,1020.757c51.008,0,100.435,14.235,105.971-9.094s0-343.614,0-343.614-303.281-11.467-312.375,0-1.977,363.384,5.141,368.92,121.392-10.281,121.392-10.281S675.112,1020.757,749.883,1020.757Z" transform="translate(-237.437 -217.206)"/><path class="g" d="M662.325,1257.887c24.911-1.977,46.263,5.14,48.24,44.682s-.3,87.688-21.109,87.933-38.994,3.8-45.716-10.432-3.954-103.993,3.954-113.088S662.325,1257.887,662.325,1257.887Z" transform="translate(-298.357 -576.716)"/><path class="h" d="M706.262,1391.087c4.943.146,10.393-.132,16.142-.341l.165-131.712a53.66,53.66,0,0,0-10.734-1.349Z" transform="translate(-338.449 -576.774)"/><path class="i" d="M576.384,712.542l106.093.042s-3.163-49.822,0-53.776,188.611-3.954,192.961,0,.791,293.791-4.745,294.978a29.9,29.9,0,0,1-11.071,0s7.908-283.511,4.35-287.465-171.213-2.768-173.586,0,1.977,362.593-.791,364.966-8.7,3.559-10.281,1.582,0-164.1,0-164.1-96.085,0-98.062-2.768-.791-6.327-.791-6.327l98.458,2.372s1.977-54.172.4-56.939-112.693.791-111.506-3.559,9.885-5.14,9.885-5.14,100.83,2.372,101.226.791,1.977-71.57-.4-74.733S565.83,719.7,565.83,719.7l-2.426-6.03Z" transform="translate(-252.079 -212.907)"/><path class="j" d="M563.6,750.06s8.576-6.1,6.27-18.663-14.534-13.436-14.534-13.436L549.6,726.5Z" transform="translate(-243.732 -250.463)"/><path class="j" d="M471.006,776.413s-2.8,5.94-11.719,12.359c-9.627,6.928-11.824,22.212-7.491,32.422,9.676,22.8,31.58,25.35,48.458,15.787s9.687-45.481,7.714-52.759S508,766.7,508,766.7Z" transform="translate(-183.317 -279.928)"/><path class="k" d="M512.674,820.385c16.879-9.562,11.624-31.725,9.651-39S520.7,762,520.7,762l-10.289,4.994-9.192,4.495s-2.038,7.543-12.3,16.785-15.456,16.508-15.5,27.051c-.044,10.459,9.564,18.684,27.047,19.529C503.928,834.043,509.4,822.239,512.674,820.385Z" transform="translate(-197.673 -277.089)"/><path class="l" d="M558.014,796.917c-1.951,2.988-3.585,6.189-2.209,11.414l5.155,4.05L555.8,828.949l-20.619-9.573s10.309-7.364,11.414-14.359a48.137,48.137,0,0,0,.368-12.518Z" transform="translate(-235.018 -295.528)"/><path class="m" d="M551.086,813.79l2.181,2.641a39.5,39.5,0,0,1,5.891-8.836,12.443,12.443,0,0,1,5.783-3.777,14.16,14.16,0,0,1,2.685-6.9L556.581,792.5a48.144,48.144,0,0,1-.368,12.518C555.728,808.089,553.468,811.231,551.086,813.79Z" transform="translate(-244.631 -295.528)"/><path class="l" d="M564.018,747.455c5.608.768,3.436,10.648,4.671,15.3s2.469,9.307-.238,12.563-14.634,4.353-17.123-3.963.433-22.812.433-22.812Z" transform="translate(-244.171 -268.295)"/><path class="j" d="M534.444,728.972c-4.229,7.095-9.012,13.213-17.27,13.211l-17.44,7.456s3.968-6.646,2.552-13.315,5.858-18.662,14.824-19.38C536.941,715.357,534.444,728.972,534.444,728.972Z" transform="translate(-213.585 -249.771)"/><path class="n" d="M698.364,960.945c-3.938,1.471,0,10.908,0,10.908l50.768,4.055s7.357-6.659,3.4-9.427-20.561,0-31.633-1.977S703.708,958.949,698.364,960.945Z" transform="translate(-332.616 -397.014)"/><path class="j" d="M789.553,1545.125c6.418-3.984,21.748,18.584,14.63,23.725s-22.143.791-22.143-5.536S785.373,1547.719,789.553,1545.125Z" transform="translate(-384.263 -750.273)"/><path class="k" d="M796.1,1550.633c2.44-1.306,13.84,7.117,9.49,10.676s-11.862,3.559-13.049,0S793.622,1551.961,796.1,1550.633Z" transform="translate(-390.417 -753.804)"/><path class="j" d="M728.515,1545.125c-6.418-3.984-21.748,18.584-14.63,23.725s22.143.791,22.143-5.536S732.695,1547.719,728.515,1545.125Z" transform="translate(-341.942 -750.273)"/><path class="k" d="M729.017,1560.68c.478,2.726,14.14,6.5,14.257.88s-4.519-11.53-8.051-10.268S728.532,1557.908,729.017,1560.68Z" transform="translate(-352.176 -754.181)"/><path class="o" d="M607.776,1541.842c5.536.791,11.467,15.816,6.327,18.584s-27.679,2.373-29.261,0,11.862-10.281,11.862-10.281,4.349,6.722,8.7,1.977A10.65,10.65,0,0,0,607.776,1541.842Z" transform="translate(-264.962 -748.572)"/><path class="p" d="M642.776,1556.842c5.536.791,11.467,15.817,6.326,18.585s-27.679,2.372-29.26,0,11.862-10.281,11.862-10.281,4.35,6.722,8.7,1.977A10.65,10.65,0,0,0,642.776,1556.842Z" transform="translate(-286.122 -757.64)"/><path class="l" d="M580.073,1372.15s-6.087,24.763-5.888,34.835c.454,23.082,5.879,53.674,3.07,57.96s-.61,9.16,6.516,11.378,26.06,2.125,29.514.221-23.949-8.34-23.925-12.491,4.492-101,4.492-101l-12.661,4.828Z" transform="translate(-258.594 -640.481)"/><path class="m" d="M580.091,1467.164s.492-23.132,0-50.2,10.142-61.846,10.142-61.846l-4.162-.793-4.09,1.559-1.908,10.986s-6.087,24.763-5.888,34.836c.454,23.082,5.879,53.674,3.07,57.96-2.076,3.168-1.413,6.656,1.948,9.156l3.262,1.765q.623.244,1.305.458c.484.151,1.026.289,1.61.419Z" transform="translate(-258.594 -635.2)"/><path class="l" d="M531.834,1354.368s-9.881,22.371-9.807,47.156,9.27,60.548,6.254,65.15-1.381,13.131,9.451,13.165c8.012.026,25.523,1.333,29.23-.711s-25.711-8.954-25.686-13.411,5.466-122.176,5.466-122.176l-13.708,6.249Z" transform="translate(-227.062 -628.682)"/><path class="k" d="M556.871,1661.148c.627,1.174,1.047,2.347.682,2.964-3.153,5.339-17.689-.492-22.415-6.014-2.012,4.74.193,11.888,10.11,11.919,8.012.026,25.523,1.332,29.231-.712C576.893,1667.975,565.272,1664.583,556.871,1661.148Z" transform="translate(-234.58 -818.858)"/><path class="k" d="M602.563,1627.164a2.832,2.832,0,0,1-.874,2.4c-3.937,2.953-9.351.984-15.75-1.969a19.286,19.286,0,0,1-6.286-4.658c-1.992,4.058.367,8.437,7.013,10.506,7.126,2.218,26.06,2.125,29.514.221C618.17,1632.57,609.913,1629.967,602.563,1627.164Z" transform="translate(-261.489 -797.602)"/><g transform="translate(290.432 600.706)"><path class="q" d="M533.058,1054.845a41.517,41.517,0,0,1-2.932,7.877c-.328.623-.651,1.251-1,1.866-.374.6-.731,1.211-1.12,1.8-.412.577-.811,1.164-1.253,1.72l-.678.823c-.227.273-.446.554-.7.8a25.95,25.95,0,0,1-3.154,2.875,20.6,20.6,0,0,1-1.756,1.214,16.85,16.85,0,0,1-1.854,1.049,24.751,24.751,0,0,1-8.046,2.46,36.487,36.487,0,0,0,7.6-3.272,27.588,27.588,0,0,0,6.336-5.129,36.794,36.794,0,0,0,4.809-6.65C530.694,1059.9,531.881,1057.382,533.058,1054.845Z" transform="translate(-510.566 -1054.845)"/></g><path class="h" d="M704.279,772.9s13.514-.747,21.315-1.157,17.245,7.391,16.835,9.444-59.128,1.232-59.128,1.232-1.643-5.338,3.285-7.391a68.712,68.712,0,0,1,12.319-3.284Z" transform="translate(-324.408 -282.969)"/><path class="l" d="M631.1,805.691c12.072,13.208,25.269,4.938,32.66-27.5,0,0,2.874-9.854,9.033-9.444s5.338,2.463,5.338,2.463l-4.517,5.748s3.7.822,3.285,2.464-8.212,2.464-8.212,2.464c-3.285,41.472-22.717,49.729-41.061,35.723Z" transform="translate(-290.907 -281.16)"/><path class="p" d="M527.394,907.2s8.8-33.788,9.211-38.305-2.053-11.5-2.053-11.5l6.159-6.981a88.862,88.862,0,0,0-7.8-5.748c-4.927-3.285-14.751-7.745-14.751-7.745s1.2,7.745-1.674,10.208c-2.62,2.246-12.912-8.782-12.912-8.782-11.109,2.418-21.374,13.094-21.374,20.9,0,0,12.12,7.843,13.14,12.729,2.954,14.163.44,35.11.44,35.11-3.309,4.336-14.557,23.015-14.557,42.456,0,51.231-11.958,84.421-11.958,84.421,5.533,5.735,56.829,19.383,61.669,13.587,0,0,9.364-73.814,6.9-101.868S527.394,907.2,527.394,907.2Z" transform="translate(-195.163 -322.389)"/><path class="r" d="M624.56,937.462c4.058-2.941,13.14-5.338,17.656-5.338s11.907-1.642,13.55,1.232-.821,6.98-5.749,7.8-14.782,2.874-18.478,5.338-13.55,6.159-16.014,2.874S621.534,939.655,624.56,937.462Z" transform="translate(-283.323 -379.661)"/><path class="l" d="M572.812,921.665c-.411,2.463-12.321,6.979-12.321,6.979a48.862,48.862,0,0,1-11.38,5.136c-11.8,3.579-23.871,2.191-32.895-3.369-10.632-6.548-17.022-18.893-13.685-35.749,2.187,1.479,8.541,5.967,11.23,9.822a27.911,27.911,0,0,0,2.013,7.924c5.14,12.068,18.628,16.137,35.508,12.8a74.9,74.9,0,0,0,7.378-1.866c1.162-2.108,3.689-6.3,5.528-6.607,2.464-.411,0,5.338,0,5.338S573.219,919.2,572.812,921.665Z" transform="translate(-214.739 -357.294)"/><path class="j" d="M692.644,996.064s-2.312-11.633,10.737-11.238,26.888,3.954,35.982,3.559,10.758,8.188,10.758,8.188Z" transform="translate(-330.12 -411.801)"/><path class="h" d="M679.7,1153.217s-6.146-7.645,3.739-11.6,31.238,1.582,44.286,0,15.817,5.536,14.63,7.513-3.369,5.514-3.369,5.514Z" transform="translate(-321.246 -505.722)"/><path class="i" d="M882.718,752.321l175.219,4.224v9.1l-175.219-5.223Z" transform="translate(-445.132 -271.237)"/><g transform="translate(445.074 477.29)"><path class="s" d="M907.937,769.858c.477-2.884.924-5.758,1.282-8.637.166-1.44.335-2.877.431-4.318s.179-2.878.149-4.308a20.158,20.158,0,0,0-.416-4.219,9.35,9.35,0,0,0-.629-1.956,5.008,5.008,0,0,0-1.176-1.559,8.092,8.092,0,0,0-1.729-1.138,3.986,3.986,0,0,0-.942-.313,2.274,2.274,0,0,0-.947.039,2.645,2.645,0,0,0-1.507,1.253,6.822,6.822,0,0,0-.8,2,6.118,6.118,0,0,1,.507-2.153,3.039,3.039,0,0,1,1.613-1.651,2.841,2.841,0,0,1,1.211-.162,4.684,4.684,0,0,1,1.159.27,8.3,8.3,0,0,1,2,1.124,5.493,5.493,0,0,1,1.537,1.823,10.378,10.378,0,0,1,.795,2.167,20.323,20.323,0,0,1,.508,4.459,46.562,46.562,0,0,1-.853,8.783A59.247,59.247,0,0,1,907.937,769.858Z" transform="translate(-901.656 -742.727)"/></g><g transform="translate(473.5 480.211)"><path class="s" d="M978.684,768.393c.034-1.954.135-3.888.234-5.82.038-.966.1-1.929.134-2.892s.084-1.922.087-2.878c.022-.956.013-1.911-.053-2.846a9.967,9.967,0,0,0-.163-1.371,2.827,2.827,0,0,0-.4-1.119,1.949,1.949,0,0,0-.448-.327,3.433,3.433,0,0,0-.588-.227,3.053,3.053,0,0,0-1.305-.077,6.8,6.8,0,0,0-2.631,1.015,5.754,5.754,0,0,1,2.512-1.585,3.686,3.686,0,0,1,1.58-.115,3.425,3.425,0,0,1,.794.212,2.716,2.716,0,0,1,.761.469,3.229,3.229,0,0,1,.743,1.518,11.123,11.123,0,0,1,.27,1.5,27.309,27.309,0,0,1,.12,2.966,48.463,48.463,0,0,1-.489,5.841A45.58,45.58,0,0,1,978.684,768.393Z" transform="translate(-973.546 -750.114)"/></g><g transform="translate(490.423 480.306)"><path class="s" d="M1020.912,771c.047-2.127.158-4.236.267-6.342l.149-3.154c.048-1.05.095-2.1.106-3.144.031-1.045.031-2.09-.015-3.123a12.12,12.12,0,0,0-.4-2.983,2.14,2.14,0,0,0-.277-.581.826.826,0,0,0-.174-.178l-.312-.176a2.756,2.756,0,0,0-1.352-.355,3.585,3.585,0,0,0-2.559,1.44,3.968,3.968,0,0,1,.979-1.285,3.094,3.094,0,0,1,1.524-.735,3.4,3.4,0,0,1,1.726.226l.4.172a1.6,1.6,0,0,1,.421.34,2.947,2.947,0,0,1,.486.8,7.136,7.136,0,0,1,.454,1.627c.094.542.158,1.081.206,1.62.083,1.078.091,2.149.079,3.217a58.749,58.749,0,0,1-.522,6.358A53.442,53.442,0,0,1,1020.912,771Z" transform="translate(-1016.344 -750.352)"/></g><path class="t" d="M915.724,792.342c10.281,0,22.143,129.7,13.444,133.649s-11.862,7.908-13.444,3.954-10.281-137.6-5.14-137.6Z" transform="translate(-461.008 -295.433)"/><path class="r" d="M978.882,786.342c5.55,0,7.117,172.8,0,173.586s-3.559-102.016-4.349-123.369S971.369,786.342,978.882,786.342Z" transform="translate(-500.046 -291.805)"/><path class="g" d="M1019.285,792.252c5.34.643,6.326,136.813,0,141.162s-12.653-4.349-11.467-11.072.791-121.787,2.768-125.741S1016.871,791.961,1019.285,792.252Z" transform="translate(-520.679 -295.343)"/><g transform="translate(512.622 494.339)"><path class="s" d="M1102.755,785.842q4.7,4.138,9.263,8.422c3.046,2.853,6.078,5.725,9.013,8.7,1.468,1.486,2.919,2.99,4.33,4.536a49.62,49.62,0,0,1,4.016,4.864,10.25,10.25,0,0,1,.83,1.4,3.1,3.1,0,0,1,.276.863,1.207,1.207,0,0,1-.054.591.931.931,0,0,1-.486.511,2.845,2.845,0,0,1-.912.2c-.28.023-.551.029-.821.028-.538,0-1.068-.03-1.6-.068-2.107-.16-4.177-.48-6.246-.8-8.257-1.373-16.411-3.207-24.5-5.277q-3.037-.77-6.051-1.63t-6.013-1.77c-2-.608-3.983-1.269-5.944-2-.98-.365-1.955-.745-2.913-1.171a14.985,14.985,0,0,1-1.406-.7,5.573,5.573,0,0,1-.657-.435,1.726,1.726,0,0,1-.284-.275.366.366,0,0,1-.092-.366.352.352,0,0,0,.114.348,1.7,1.7,0,0,0,.3.247,5.386,5.386,0,0,0,.677.379c.468.224.951.415,1.436.6.972.369,1.961.693,2.955,1,1.99.612,4,1.161,6.007,1.715,4.018,1.1,8.078,2.049,12.127,3.032,4.056.955,8.116,1.895,12.189,2.768,4.069.888,8.152,1.719,12.245,2.457,2.046.365,4.1.693,6.149.917.511.054,1.022.1,1.527.117.252.009.5.011.743,0a2.213,2.213,0,0,0,.617-.1c.051-.025.03-.015.045-.034a.385.385,0,0,0,.009-.18,2.307,2.307,0,0,0-.2-.622,9.428,9.428,0,0,0-.743-1.3,48.972,48.972,0,0,0-3.878-4.837c-1.38-1.555-2.8-3.076-4.244-4.58C1114.815,797.38,1108.807,791.585,1102.755,785.842Z" transform="translate(-1072.484 -785.842)"/></g><path class="l" d="M1164.648,786.765s-3.954-8.3-8.3-9.49-8.062-.856-7.194.956,6.4,4.975,7.589,8.534,0,4.35,0,4.35-2.372-6.327-3.954-4.35,6.722,11.467,6.722,11.467Z" transform="translate(-606.137 -285.901)"/><g transform="translate(513.622 478.165)"><path class="s" d="M1132.952,790.57a2.394,2.394,0,0,1-.955.216c-.328.023-.657.025-.986.02-.658-.012-1.314-.055-1.969-.11-1.309-.116-2.613-.284-3.913-.465-2.6-.367-5.191-.806-7.776-1.273-5.162-.968-10.3-2.064-15.418-3.234s-10.213-2.462-15.275-3.892c-2.529-.724-5.046-1.49-7.537-2.4-.622-.231-1.242-.473-1.86-.747-.308-.137-.616-.282-.924-.448a4.4,4.4,0,0,1-.944-.641,1.419,1.419,0,0,1-.259-.328,1.021,1.021,0,0,1-.108-.289.845.845,0,0,1,.029-.416.575.575,0,0,1,.055-.128l.051-.093a.933.933,0,0,1,.1-.155,1.966,1.966,0,0,1,.211-.242,6.62,6.62,0,0,1,.837-.694c.561-.4,1.129-.747,1.7-1.087,2.3-1.333,4.64-2.513,6.972-3.719s4.666-2.395,6.983-3.613,4.618-2.465,6.869-3.787q1.689-.99,3.329-2.052c1.094-.7,2.164-1.443,3.188-2.234a19.158,19.158,0,0,0,2.821-2.6,6.456,6.456,0,0,0,1-1.546,9.5,9.5,0,0,0,.542-1.8,6.455,6.455,0,0,0-.248-3.672,5.606,5.606,0,0,0-2.4-2.758,7.647,7.647,0,0,0-7.324-.12,8.617,8.617,0,0,0-3.039,2.358,6.087,6.087,0,0,0-.966,1.682,5.068,5.068,0,0,0-.358,1.914,5.119,5.119,0,0,1,.273-1.944,6.255,6.255,0,0,1,.907-1.76,8.842,8.842,0,0,1,3.038-2.529,8.094,8.094,0,0,1,7.759-.1,6.19,6.19,0,0,1,2.731,3.009,7.16,7.16,0,0,1,.367,4.061,10.241,10.241,0,0,1-.55,1.971,7.249,7.249,0,0,1-1.091,1.769,19.909,19.909,0,0,1-2.9,2.787,58.261,58.261,0,0,1-6.552,4.464c-2.259,1.359-4.559,2.637-6.873,3.885s-4.651,2.444-6.979,3.652-4.664,2.4-6.9,3.71c-.557.327-1.107.664-1.618,1.023a5.711,5.711,0,0,0-.68.555.929.929,0,0,0-.113.127.147.147,0,0,0-.033.047l-.009.014s-.017.028,0-.017a.33.33,0,0,0,.011-.173.247.247,0,0,0-.018-.062.445.445,0,0,0,.048.054,3.48,3.48,0,0,0,.684.454c.268.146.554.282.844.412.581.26,1.183.5,1.789.726,2.432.905,4.939,1.664,7.445,2.411,5.017,1.488,10.1,2.792,15.174,4.084q7.626,1.913,15.319,3.55c2.562.553,5.131,1.077,7.712,1.531,1.291.225,2.584.434,3.883.6.649.084,1.3.156,1.953.2.326.02.653.032.98.024A2.362,2.362,0,0,0,1132.952,790.57Z" transform="translate(-1075.014 -744.938)"/></g><path class="n" d="M1051.526,798.842s1.977,11.862,13.048,16.212,20.166-5.536,20.166-5.536,11.467,9.49,14.235,18.98,3.954,22.143,3.954,22.143l-11.467,5.536s3.164,61.684-1.581,64.452-69.988-.4-71.965-9.094,2.372-51.8,2.372-51.8l-8.993-11.808s6.621-30.105,18.879-38.8S1051.526,798.842,1051.526,798.842Z" transform="translate(-522.868 -299.363)"/><path class="u" d="M1132.775,847.66a25.041,25.041,0,0,0-2.758-5.969l-13.536-11.155c-2.466,1.967-6.953,4.786-12.371,4.78-3,11.041-8.194,28.686-15.818,49.71-10.437,28.782-18.344,46.177-21.09,51.987,20.155,3.745,53.157,4.716,56.48,2.778,4.745-2.768,1.582-64.452,1.582-64.452l11.467-5.536S1135.543,857.149,1132.775,847.66Z" transform="translate(-556.668 -318.525)"/><path class="m" d="M1414.532,793.79l.9,7.654-11.706,4.052,13.958,11.255,15.307-3.6-1.8-9.454-4.052-2.251,3.151-13.057h-10.805Z" transform="translate(-760.127 -293.042)"/><path class="l" d="M1441.882,825.678l-13.863,4.621-3.518-2.837-3.463-10.682,4.861-1.682-.375-3.19c1.868-.607,6.821-1.893,10.055.264a8.112,8.112,0,0,1,2.161,2.367l-.135.559.705.391A43.236,43.236,0,0,1,1441.882,825.678Z" transform="translate(-770.594 -306.695)"/><path class="l" d="M1415.416,741.046c2.386-11.928,11.832-16.186,17.559-12.606,4.683,2.927,10.122,11.56,6.929,19.223,1.063.212,2.075.918,2.075,2.838,0,4.052-3.152,4.052-4.5,3.152a3.922,3.922,0,0,1-1.072-1.11,27.258,27.258,0,0,1-10.634,5.612C1416.062,761.142,1413.615,750.051,1415.416,741.046Z" transform="translate(-766.864 -256.056)"/><path class="n" d="M1364.415,1067.723a198.435,198.435,0,0,1,3.152,53.127c-2.252,29.265-4.5,169.285-20.71,174.688s-21.611-10.355-24.763-21.61-4.5-135.068-4.5-135.068-3.152,11.706-4.052,17.108,4.5,93.2,0,112.107-8.554,26.563-18.46,28.364-14.857-77.439-16.658-108.955-4.052-45.923,0-68.885,17.108-58.078,17.108-58.078Z" transform="translate(-682.996 -457.57)"/><path class="u" d="M1303.731,1291.146c2.85-2.859,9.795-12.461,10.864-38.83,1.065-26.279-11.314-132.341-16.592-159.43v0q.47-1.59.947-3.159l.006-.02c3.656-12.028,7.448-22.742,9.025-27.105,0-.01.008-.021.011-.031.135-.373.254-.7.354-.976h0l.125-.343c.008-.02.016-.043.023-.062l.172-.47.014-.037.041-.111,0-.005.016-.041,68.885,7.2.006.025v0l.014.06c0,.008,0,.019.006.029.031.142.089.409.168.8h0c.019.1.04.2.062.31l.005.023c.023.113.046.234.072.361-9.1,4.627-34.437,18.464-39.953,31.7-6.753,16.208-7.592,39.283-7.592,39.283h0c-.014.051-.028.106-.042.159-.019.07-.037.141-.056.215l-.048.184-.062.235-.05.191c-.024.092-.049.188-.074.285l-.046.177-.12.463c-.013.049-.026.1-.039.15-.033.127-.066.255-.1.387l-.041.161-.1.4-.042.165c-.048.185-.1.373-.144.564-.006.025-.013.052-.02.078-.042.168-.085.339-.129.51l-.05.2-.107.426-.047.191c-.041.163-.082.327-.123.493l-.036.146-.158.639c-.009.035-.017.07-.026.1q-.065.267-.131.536c-.016.065-.032.13-.047.195l-.115.473c-.016.066-.032.132-.048.2q-.073.3-.145.608l-.009.04-.155.654c-.013.057-.026.115-.04.172l-.113.485-.046.2c-.038.165-.075.329-.113.492-.011.052-.024.1-.035.155q-.074.322-.144.639c-.006.025-.011.049-.016.074-.041.182-.08.361-.119.539-.014.063-.027.126-.041.188q-.047.217-.092.431c-.014.064-.027.129-.041.193l-.1.47-.023.112c-.04.191-.077.378-.114.562-.009.046-.017.09-.027.136l-.078.4c-.011.06-.022.12-.034.179-.022.12-.044.238-.065.355-.009.052-.02.106-.029.158-.029.163-.057.323-.083.476-.9,5.4,4.5,93.2,0,112.107s-8.554,26.563-18.459,28.364C1306.635,1296.739,1305.118,1294.773,1303.731,1291.146Z" transform="translate(-696.208 -457.57)"/><path class="j" d="M1288.786,811.006s-5.177,9.68-11.031,7.429-3.723-8.2-3.723-8.2-15.108-1.171-25.784,7.133c-16.446,12.791-60.5-.791-69.988-15.026l-6.722,11.071c7.247,22.579,32.17,39.161,57.335,41.518-11.638,33.378-8.005,47.226-1.543,64.354,27.666,5.1,52.653,3.49,73.837-7.654l5.4-32.867s12.607-11.255,11.256-28.814-9-27.464-15.308-31.516A125.466,125.466,0,0,0,1288.786,811.006Z" transform="translate(-619.75 -301.479)"/><path class="k" d="M1382.7,946.691l.037-.035c.067-.062.17-.16.306-.294l.036-.035c.156-.155.351-.352.579-.592l0,0c.312-.329.684-.736,1.1-1.217l.025-.029c.294-.343.61-.723.94-1.139l.1-.131c.1-.129.2-.259.307-.4l-21.948-28.045s-14.811,9.51-27.914,13.056c-14.471,3.917-24.936,2.89-33.141.52-9.4,29.5-5.824,42.745.275,58.91h0q5.187.957,10.247,1.593,1.264.158,2.521.3,2.512.275,4.992.466,1.24.1,2.47.169,2.461.147,4.888.206c17.794.434,34.156-2.722,48.719-10.384l5.4-32.867.021-.019Z" transform="translate(-695.825 -369.454)"/><path class="p" d="M1404.772,1656.219s4.079,8.475,3.179,12.077-31.966,4.052-32.867,2.251,3.6-7.654,9-9.905,12.4-4.423,12.4-4.423Z" transform="translate(-742.741 -817.723)"/><path class="p" d="M1292.776,1652.6s3.594,7.466,2.8,10.639-28.16,3.569-28.954,1.983,3.173-6.742,7.933-8.726,10.922-3.9,10.922-3.9Z" transform="translate(-677.175 -815.537)"/><g transform="translate(540.559 554.517)"><g transform="translate(0 0)"><path class="s" d="M1177.1,962.077a10.158,10.158,0,0,0,1.049,1.093c.368.347.742.688,1.118,1.026l2.275,2.008,4.577,3.989c3.053,2.657,6.1,5.321,9.113,8.031s5.973,5.476,8.808,8.387a39.4,39.4,0,0,1,3.992,4.654,6.973,6.973,0,0,1,.772,1.416,1.836,1.836,0,0,1,.124.97,1.012,1.012,0,0,1-.327.536,1.691,1.691,0,0,1-.426.268,5.372,5.372,0,0,1-1.612.357c-.524.049-1.042.064-1.557.065a55.756,55.756,0,0,1-6.106-.435c-2.02-.232-4.028-.533-6.03-.862-4-.658-7.986-1.427-11.954-2.256-7.932-1.675-15.82-3.555-23.622-5.792-1.948-.57-3.889-1.166-5.818-1.812a56.476,56.476,0,0,1-5.727-2.2,13.575,13.575,0,0,1-1.4-.747,4.884,4.884,0,0,1-.69-.511,2.057,2.057,0,0,1-.342-.392,1.234,1.234,0,0,1-.147-.315,1.052,1.052,0,0,1-.036-.389,2.017,2.017,0,0,1,.377-.963,4.5,4.5,0,0,1,.561-.657,10.559,10.559,0,0,1,1.235-1.018,47.167,47.167,0,0,1,5.3-3.115c3.6-1.878,7.262-3.61,10.88-5.415s7.231-3.612,10.667-5.706a36.309,36.309,0,0,0,4.887-3.475c.372-.328.731-.668,1.067-1.026s.676-.741,1-1.123c.657-.759,1.289-1.539,1.887-2.345a28.421,28.421,0,0,0,3.1-5.131,15.944,15.944,0,0,0,1-2.808,9.8,9.8,0,0,0,.317-2.936,5.724,5.724,0,0,0-.834-2.781,5.151,5.151,0,0,0-2.174-1.916,4.942,4.942,0,0,0-2.882-.36,6.189,6.189,0,0,0-2.692,1.2,7.826,7.826,0,0,0-2.893,5.091,11.675,11.675,0,0,0,.8,5.933,11.743,11.743,0,0,1-.914-5.95,7.924,7.924,0,0,1,2.873-5.252,6.433,6.433,0,0,1,2.784-1.285,5.231,5.231,0,0,1,3.058.339,5.557,5.557,0,0,1,2.351,2.006,6.122,6.122,0,0,1,.963,2.949,10.248,10.248,0,0,1-.258,3.083,16.512,16.512,0,0,1-.966,2.925,28.422,28.422,0,0,1-3.083,5.294c-.6.83-1.227,1.632-1.883,2.412-.324.4-.661.772-1,1.16s-.722.747-1.1,1.093a37.019,37.019,0,0,1-4.945,3.628c-6.911,4.321-14.357,7.595-21.5,11.346a46.278,46.278,0,0,0-5.149,3.058,9.593,9.593,0,0,0-1.1.915,3.452,3.452,0,0,0-.423.5.976.976,0,0,0-.186.427c0,.048,0-.01-.005-.013s0,.006.016.027a1.024,1.024,0,0,0,.16.175,3.78,3.78,0,0,0,.532.386,12.527,12.527,0,0,0,1.282.676,55.805,55.805,0,0,0,5.613,2.123c1.912.63,3.844,1.213,5.783,1.771,7.755,2.246,15.615,4.172,23.515,5.875,3.952.846,7.917,1.631,11.9,2.3,1.991.334,3.985.641,5.982.907a55.053,55.053,0,0,0,5.993.515c.5.007.992,0,1.476-.04a4.658,4.658,0,0,0,1.347-.266c.191-.077.292-.189.29-.222a1.154,1.154,0,0,0-.086-.515,6.237,6.237,0,0,0-.667-1.249,38.792,38.792,0,0,0-3.851-4.6c-2.771-2.931-5.714-5.708-8.659-8.48s-5.942-5.492-8.94-8.211l-4.492-4.086-2.22-2.072c-.367-.348-.732-.7-1.09-1.057A10.2,10.2,0,0,1,1177.1,962.077Z" transform="translate(-1143.138 -938.032)"/></g></g><path class="l" d="M1251.869,956.976s-3.272-9.634-6.424-9.634,1.471,5.132,1.471,5.132-5.7-6.415-7.8-1.178c-3.954,9.885,6,12.433,6,12.433Z" transform="translate(-660.046 -389.144)"/><path class="j" d="M1255.7,935.25a32.843,32.843,0,0,1,6.754-6.753s21.16,9,42.771,4.5,31.966-30.165,31.966-30.165l30.181-2.6a60.349,60.349,0,0,1,1.334,8.9c1.351,17.559-11.256,28.814-11.256,28.814C1329.542,969.018,1272.813,973.52,1255.7,935.25Z" transform="translate(-670.635 -360.666)"/><g transform="translate(635.094 584.935)"><path class="s" d="M1412,1023.815a15.066,15.066,0,0,0-7.5-6.839,13.158,13.158,0,0,0-4.967-.892,18.227,18.227,0,0,0-5.034.766,15.916,15.916,0,0,0-9.833,7.608,18.29,18.29,0,0,0-1.121,2.333,20.3,20.3,0,0,0-1.317,5.057,16.919,16.919,0,0,1,.768-5.251,16.668,16.668,0,0,1,2.362-4.827,14.054,14.054,0,0,1,1.768-2.066,15.171,15.171,0,0,1,2.113-1.725,17.252,17.252,0,0,1,4.933-2.27,18.784,18.784,0,0,1,5.372-.746,15.705,15.705,0,0,1,2.718.309,13.068,13.068,0,0,1,6.955,4.029A13.943,13.943,0,0,1,1412,1023.815Z" transform="translate(-1382.218 -1014.96)"/></g><path class="p" d="M1466,700.6c-1.186-12.258-10.676-7.513-10.676-7.513s3.954-15.421-4.745-17c-6.39-1.162-8.724,4.074-9.514,6.937-3.368-3.6-7.534-5.074-11.7-3.6-6.866,2.422-7.213,13.907-2,19.171a9.124,9.124,0,0,0,2,1.539,19.155,19.155,0,0,0,13.759,2.13c2.666,3.971,4.259,9.387,2.175,14.389a2.522,2.522,0,0,1,2.075,2.841c0,4.052-3.152,4.052-4.5,3.152a3.861,3.861,0,0,1-1.072-1.112c-.428.4-.9.783-1.4,1.161l-.234,1.752a26.845,26.845,0,0,0,4.953,1.35c2.7.45,8.554-1.8,9-8.554a12.617,12.617,0,0,0-.1-2.682c.065-.815.108-1.662.108-2.489C1454.138,708.513,1467.186,712.862,1466,700.6Z" transform="translate(-772.258 -225.048)"/><path class="g" d="M1122.108,1016.342s3.376,23.286,13.452,25.581,18.972-22.022,18.972-22.022,21.155,15.223,29.854,31.435,2.768,108.343-5.14,109.529-15.026-54.567-15.026-54.567,5.536,37.564-7.513,45.472-62.08-9.885-65.243-32.028-3.163-29.26-3.163-29.26a31.812,31.812,0,0,1-3.954-25.306c3.954-14.235,7.117-32.424,19.771-40.727C1110.292,1020.395,1122.108,1016.342,1122.108,1016.342Z" transform="translate(-566.364 -430.861)"/><path class="h" d="M1091.859,1062.353a115.116,115.116,0,0,1,12.066-25.172c-12.49,8.362-15.645,26.432-19.578,40.593a31.812,31.812,0,0,0,3.954,25.307S1087.114,1077.379,1091.859,1062.353Z" transform="translate(-566.364 -443.46)"/><path class="b" d="M212.823,733.7c-5.455,5.456-3.33,65.216,2.5,67.713s53.56,3.053,55.5,0,7.493-64.105,5.273-67.713S218.1,728.428,212.823,733.7Z" transform="translate(-38.214 -257.949)"/><path class="a" d="M231.308,753.922c-4.218,4.218-2.575,50.423,1.931,52.355s41.412,2.361,42.914,0,5.793-49.565,4.077-52.355S235.384,749.845,231.308,753.922Z" transform="translate(-49.822 -270.634)"/><path class="b" d="M355.455,972.7c5.456,5.456,3.33,65.216-2.5,67.713s-53.56,3.053-55.5,0-7.493-64.105-5.272-67.713S350.182,967.428,355.455,972.7Z" transform="translate(-87.79 -402.445)"/><path class="a" d="M360.187,992.922c4.218,4.218,2.575,50.423-1.931,52.354s-41.412,2.361-42.914,0-5.793-49.565-4.076-52.354S356.111,988.845,360.187,992.922Z" transform="translate(-99.398 -415.131)"/><g transform="translate(287.061 631.942)"><path class="q" d="M510.344,1133.842c.074,6.859.109,13.714.031,20.571s-.234,13.718-.612,20.574l-.35,5.139c-.154,1.711-.28,3.425-.456,5.134-.2,1.706-.37,3.417-.607,5.12l-.363,2.553-.188,1.275-.226,1.271c-.311,1.691-.579,3.39-.981,5.064l-.562,2.518-.662,2.493a81.948,81.948,0,0,1-3.327,9.744l.772-2.453c.263-.815.539-1.624.743-2.457.442-1.654.913-3.3,1.247-4.976l.561-2.5.464-2.521c.335-1.675.569-3.369.829-5.057l.19-1.266L507,1192.8l.318-2.543c.207-1.7.344-3.4.52-5.1l.418-5.111.323-5.121.272-5.126.218-5.131.384-10.27.387-10.276C510,1140.692,510.136,1137.265,510.344,1133.842Z" transform="translate(-502.04 -1133.842)"/></g></g></svg>